<?xml version="1.0" standalone="no"?>
<!DOCTYPE svg PUBLIC "-//W3C//DTD SVG 20010904//EN"
 "http://www.w3.org/TR/2001/REC-SVG-20010904/DTD/svg10.dtd">
<svg version="1.0" xmlns="http://www.w3.org/2000/svg"
 width="1920.000000pt" height="1920.000000pt" viewBox="0 0 1920.000000 1920.000000"
 preserveAspectRatio="xMidYMid meet">
<metadata>
Created by potrace 1.11, written by Peter Selinger 2001-2013
</metadata>
<g transform="translate(0.000000,1920.000000) scale(0.100000,-0.100000)"
fill="#000000" stroke="none">
<path d="M9179 19196 c-2 -2 -60 -7 -129 -10 -119 -6 -157 -9 -287 -21 -32 -3
-83 -8 -113 -11 -30 -2 -98 -9 -150 -15 -52 -6 -109 -13 -125 -14 -30 -3 -115
-15 -147 -21 -9 -1 -38 -6 -65 -10 -26 -3 -57 -8 -68 -10 -11 -3 -40 -7 -65
-10 -25 -3 -52 -7 -60 -9 -8 -2 -28 -6 -45 -9 -269 -44 -694 -143 -1000 -232
-774 -226 -1454 -519 -2190 -944 -227 -131 -751 -480 -894 -595 -9 -8 -88 -70
-176 -139 -476 -372 -939 -814 -1345 -1285 -30 -35 -59 -69 -65 -75 -158 -179
-449 -569 -644 -861 -310 -464 -523 -848 -784 -1415 -134 -291 -327 -814 -432
-1170 -45 -151 -143 -529 -151 -579 -3 -20 -8 -39 -10 -42 -4 -7 -41 -178 -49
-229 -3 -19 -8 -42 -10 -50 -2 -8 -7 -31 -10 -50 -3 -19 -10 -57 -15 -85 -17
-88 -37 -213 -55 -340 -3 -22 -7 -49 -10 -60 -2 -11 -7 -54 -11 -95 -3 -41 -8
-78 -10 -81 -2 -4 -6 -44 -9 -90 -4 -46 -8 -91 -10 -99 -3 -8 -7 -51 -10 -95
-3 -44 -7 -98 -10 -120 -27 -259 -27 -1293 -1 -1431 2 -11 7 -62 10 -114 4
-52 8 -106 10 -120 3 -14 7 -61 11 -105 4 -44 9 -89 10 -100 2 -11 6 -42 10
-70 10 -83 41 -297 50 -345 3 -14 7 -41 10 -60 3 -19 10 -62 16 -95 6 -33 13
-71 15 -85 5 -28 24 -119 54 -260 11 -52 43 -185 71 -295 28 -110 52 -207 54
-215 1 -8 10 -37 19 -65 8 -27 31 -104 51 -170 421 -1395 1194 -2722 2210
-3793 248 -261 546 -543 785 -742 30 -25 70 -59 90 -75 207 -179 651 -501 965
-700 76 -49 404 -245 409 -245 2 0 48 -25 102 -56 133 -76 515 -267 694 -347
364 -163 757 -311 1125 -422 66 -20 143 -43 170 -51 28 -9 57 -18 65 -19 8 -2
105 -26 215 -54 110 -28 243 -60 295 -71 131 -28 327 -67 375 -74 22 -4 78
-13 125 -21 47 -8 103 -17 125 -20 23 -3 50 -7 60 -9 11 -2 47 -7 80 -11 32
-4 67 -8 75 -10 9 -2 43 -6 76 -9 32 -4 78 -9 102 -11 100 -11 131 -15 207
-20 44 -4 96 -8 115 -10 254 -27 1295 -27 1439 0 9 1 61 6 116 10 55 3 114 8
130 10 17 2 50 6 75 9 25 3 70 8 100 11 30 3 66 8 80 10 14 2 63 9 110 15 47
6 96 13 110 16 14 2 48 7 75 10 28 3 53 8 56 10 4 2 27 6 52 9 36 4 491 96
547 110 19 5 150 36 170 40 63 14 271 72 395 110 83 25 158 47 169 50 98 23
611 213 816 302 69 30 130 55 135 57 22 6 237 107 395 184 615 303 1202 678
1750 1116 121 96 308 253 341 285 9 9 49 45 89 81 280 248 688 670 915 945 22
27 63 76 90 109 433 522 857 1182 1179 1831 76 154 226 480 226 493 0 4 7 20
15 35 29 56 184 466 248 657 190 566 344 1224 412 1765 3 28 8 65 11 83 11 80
13 101 19 167 3 39 8 84 10 100 3 29 12 123 20 230 16 200 20 362 20 725 0
356 -8 638 -20 699 -1 9 -6 59 -9 111 -4 52 -8 106 -10 120 -3 14 -7 61 -11
105 -4 44 -9 89 -10 100 -2 11 -6 43 -10 70 -10 83 -41 297 -50 345 -3 14 -7
41 -10 60 -3 19 -10 61 -16 92 -5 32 -12 70 -15 85 -2 16 -9 48 -14 73 -6 25
-12 55 -14 66 -14 75 -63 287 -100 439 -52 208 -176 615 -259 850 -164 464
-452 1098 -663 1458 -19 32 -34 60 -34 62 0 13 -268 442 -377 605 -400 595
-833 1107 -1374 1625 -95 91 -326 297 -409 365 -30 25 -57 47 -60 50 -7 8
-158 131 -190 155 -15 11 -99 74 -186 140 -226 171 -428 310 -644 445 -47 29
-101 63 -120 75 -36 24 -189 114 -250 147 -19 11 -57 33 -85 48 -379 215 -966
482 -1400 636 -84 30 -334 114 -355 120 -22 5 -280 82 -315 94 -29 9 -329 86
-370 95 -11 2 -81 17 -155 34 -132 29 -315 66 -375 75 -16 3 -70 12 -120 20
-49 8 -108 18 -130 21 -23 3 -50 7 -60 9 -11 2 -47 7 -80 11 -32 4 -68 9 -78
11 -10 2 -48 6 -85 10 -36 3 -73 7 -82 9 -8 1 -53 6 -100 10 -46 4 -96 9 -110
10 -14 2 -72 6 -130 10 -58 4 -121 9 -140 12 -39 5 -986 14 -991 9z m741 -260
c113 -4 223 -9 245 -11 22 -1 83 -6 135 -9 103 -7 146 -11 236 -20 32 -4 82
-9 109 -11 28 -3 66 -7 85 -10 19 -2 51 -7 70 -9 153 -20 263 -37 450 -70 39
-6 143 -26 170 -31 14 -3 39 -8 55 -11 17 -3 50 -10 75 -15 25 -6 52 -12 60
-14 8 -2 58 -13 110 -25 52 -12 103 -23 113 -25 161 -33 911 -264 1022 -315
11 -5 97 -39 190 -75 94 -37 184 -73 200 -80 17 -7 100 -45 186 -84 235 -105
652 -315 721 -363 14 -10 30 -18 35 -18 9 -1 86 -47 441 -265 36 -22 227 -150
232 -155 3 -3 12 -9 22 -15 51 -31 484 -348 498 -364 3 -3 39 -33 80 -66 79
-63 262 -215 270 -226 3 -3 28 -25 55 -49 295 -253 719 -689 1004 -1035 46
-55 91 -110 102 -122 103 -123 377 -500 531 -733 100 -152 290 -469 368 -615
18 -33 43 -78 55 -100 46 -81 207 -409 276 -562 39 -87 77 -171 84 -188 7 -16
43 -106 80 -200 36 -93 70 -179 75 -190 31 -72 171 -499 218 -665 39 -136 93
-338 98 -370 3 -14 7 -33 10 -42 3 -9 6 -25 8 -35 2 -10 9 -36 14 -58 21 -78
83 -397 107 -542 33 -203 44 -281 50 -341 4 -35 8 -71 10 -80 1 -9 6 -46 9
-82 4 -36 9 -81 11 -100 53 -457 61 -1121 20 -1650 -2 -30 -7 -89 -10 -130 -3
-41 -7 -88 -10 -105 -4 -30 -9 -69 -20 -175 -3 -30 -8 -67 -11 -82 -2 -15 -6
-47 -9 -70 -2 -24 -7 -59 -10 -78 -3 -19 -7 -48 -9 -65 -8 -55 -17 -109 -26
-160 -5 -27 -11 -63 -14 -80 -2 -16 -9 -55 -16 -85 -6 -30 -13 -66 -15 -80 -3
-14 -14 -68 -25 -120 -12 -52 -23 -105 -26 -118 -15 -75 -90 -371 -129 -507
-119 -419 -312 -946 -471 -1283 -24 -51 -44 -96 -44 -98 0 -7 -194 -393 -238
-474 -235 -434 -563 -940 -829 -1280 -359 -460 -749 -878 -1177 -1265 -6 -6
-60 -53 -121 -105 -60 -52 -115 -99 -121 -105 -17 -14 -39 -32 -124 -100 -41
-33 -77 -62 -80 -65 -11 -13 -332 -250 -425 -315 -175 -122 -518 -345 -531
-345 -2 0 -27 -15 -56 -34 -29 -18 -111 -66 -183 -106 -556 -311 -1075 -541
-1660 -733 -196 -65 -485 -150 -545 -162 -9 -2 -48 -12 -86 -23 -38 -11 -80
-22 -94 -25 -14 -3 -101 -22 -195 -42 -93 -20 -179 -38 -190 -41 -22 -4 -281
-50 -330 -58 -57 -10 -160 -25 -205 -31 -25 -3 -56 -8 -70 -10 -14 -2 -50 -6
-80 -10 -30 -3 -71 -8 -90 -10 -19 -2 -64 -7 -100 -10 -36 -3 -81 -8 -100 -10
-70 -8 -319 -24 -475 -31 -253 -10 -729 -5 -935 11 -30 3 -91 7 -135 10 -90 5
-168 12 -235 20 -25 3 -70 7 -100 10 -30 2 -71 7 -90 10 -19 2 -55 7 -80 10
-45 6 -58 8 -140 20 -97 14 -159 24 -305 50 -39 6 -137 25 -165 30 -14 3 -38
8 -54 10 -170 32 -578 135 -807 204 -178 54 -565 185 -624 210 -11 5 -36 15
-55 22 -88 32 -467 193 -575 244 -238 113 -563 280 -617 317 -14 10 -30 18
-35 18 -9 1 -86 47 -441 265 -36 22 -227 150 -232 155 -3 3 -12 10 -21 15
-113 70 -633 463 -715 540 -6 5 -37 33 -69 60 -32 28 -63 55 -69 60 -6 6 -31
28 -56 49 -262 228 -602 572 -855 861 -238 272 -595 738 -710 927 -5 9 -37 56
-69 105 -60 88 -226 356 -239 383 -4 8 -11 22 -17 30 -71 109 -260 470 -395
755 -51 108 -212 487 -244 575 -7 19 -17 44 -22 55 -25 59 -156 446 -210 624
-92 303 -182 677 -242 1011 -20 107 -28 159 -42 255 -9 61 -18 121 -20 135 -9
62 -15 109 -20 160 -4 30 -8 66 -10 80 -2 14 -6 59 -10 100 -4 41 -8 86 -10
100 -2 14 -6 70 -10 125 -3 55 -8 120 -10 145 -15 165 -21 709 -10 935 6 138
15 289 20 355 10 118 16 186 20 220 2 19 7 62 10 95 3 33 8 71 10 85 2 14 6
52 10 85 3 33 10 85 15 115 5 30 12 74 15 97 9 65 14 95 20 128 15 84 18 102
20 120 2 11 15 79 29 150 14 72 28 139 30 150 2 11 12 52 21 90 9 39 18 77 20
85 3 13 31 131 40 170 39 159 133 472 217 719 271 800 684 1614 1172 2311 56
80 237 327 263 360 7 8 35 44 63 80 331 420 784 898 1150 1216 25 21 47 41 50
44 27 27 174 149 295 246 453 362 871 641 1381 922 108 59 508 262 518 262 3
0 47 20 98 44 400 188 985 396 1488 527 63 17 126 32 140 35 14 3 50 11 80 19
30 8 66 16 80 19 14 3 88 18 165 35 77 16 156 32 175 35 19 3 49 8 65 11 145
26 196 35 235 40 25 3 56 8 70 10 14 2 45 6 70 10 25 3 56 8 70 10 46 8 123
16 280 31 36 3 76 7 90 9 14 2 75 7 135 10 61 4 124 8 140 11 17 2 125 6 240
10 116 3 211 7 212 8 3 3 239 -2 433 -8z"/>
<path d="M9800 18485 c0 -14 12 -19 71 -29 82 -14 83 -21 54 -481 -2 -33 -7
-107 -10 -165 -3 -58 -8 -127 -10 -155 -2 -27 -7 -95 -10 -150 -8 -121 -20
-192 -40 -221 -17 -27 -70 -36 -110 -19 -16 7 -46 13 -66 14 -54 1 -83 15
-122 63 -40 49 -62 91 -366 695 -122 242 -228 443 -235 446 -7 3 -19 2 -26 -3
-10 -6 -295 -879 -324 -995 -11 -45 -62 -196 -74 -220 -24 -49 -70 -83 -124
-90 -34 -5 -48 -11 -48 -22 0 -13 12 -15 83 -9 45 3 93 8 107 11 14 2 72 6
129 9 97 5 135 16 118 32 -4 4 -27 6 -51 6 -54 -2 -77 21 -70 71 6 39 85 309
94 320 3 4 26 9 51 11 148 13 250 20 294 20 50 1 50 1 72 -44 152 -308 152
-309 137 -325 -9 -8 -21 -15 -27 -15 -19 0 8 -21 29 -22 37 -2 313 19 375 28
26 4 38 1 42 -9 4 -11 25 -15 79 -16 119 -3 243 -11 393 -26 214 -22 330 -24
350 -4 16 16 42 125 47 198 4 56 -16 65 -32 14 -16 -50 -56 -102 -88 -114 -44
-17 -224 -10 -305 12 -26 7 -44 20 -58 42 -18 29 -19 45 -14 197 3 91 7 185 9
210 2 25 7 99 11 165 4 66 9 143 10 170 2 28 6 93 9 145 7 117 13 149 32 178
16 25 12 23 82 27 29 2 56 6 59 9 18 17 -24 26 -147 30 -74 3 -157 8 -185 11
-143 14 -195 15 -195 0z m-835 -423 c25 -57 57 -128 140 -307 18 -39 13 -41
-100 -49 -49 -4 -116 -9 -147 -12 -32 -3 -58 -2 -58 3 0 4 27 103 60 218 33
115 60 211 60 212 0 2 3 3 8 3 4 0 20 -31 37 -68z"/>
<path d="M8030 18364 c-25 -8 -113 -31 -196 -52 -159 -41 -174 -47 -174 -64 0
-7 14 -8 43 -3 57 11 96 8 115 -7 15 -13 49 -82 57 -116 3 -9 14 -51 26 -92
11 -41 29 -104 39 -140 17 -60 52 -185 101 -355 11 -38 25 -83 30 -99 5 -16 8
-31 6 -33 -6 -6 -41 14 -257 148 -85 53 -276 168 -425 257 -148 88 -317 190
-374 225 -58 36 -111 62 -119 59 -21 -8 -20 -15 58 -322 28 -113 53 -212 55
-220 2 -8 33 -136 70 -285 37 -148 69 -298 72 -332 6 -62 6 -62 -28 -82 -19
-12 -41 -21 -50 -21 -9 0 -22 -6 -28 -14 -24 -29 11 -27 132 8 67 19 138 37
157 41 19 4 49 11 65 15 17 5 42 12 56 15 15 2 30 12 33 21 5 14 -2 15 -58 9
-79 -9 -97 0 -126 61 -19 42 -56 149 -65 193 -2 9 -36 126 -75 261 -40 135
-74 253 -76 263 -2 10 -6 28 -10 39 -5 18 -1 17 37 -9 95 -64 300 -189 634
-385 454 -266 458 -268 485 -268 20 0 22 4 17 38 -3 20 -8 46 -11 57 -2 11
-27 115 -56 230 -90 369 -112 460 -115 475 -2 8 -11 44 -20 80 -9 36 -23 94
-31 130 -8 36 -17 74 -20 85 -3 11 -8 40 -10 65 -6 54 9 77 63 95 21 7 38 19
38 26 0 18 -14 18 -65 3z"/>
<path d="M12472 18033 c-17 -15 -94 -104 -412 -473 -26 -30 -109 -127 -185
-215 -231 -269 -275 -310 -326 -300 -83 16 -111 17 -107 4 2 -8 62 -33 133
-56 71 -24 158 -54 192 -68 35 -14 70 -25 78 -25 29 0 14 25 -28 45 -28 14
-43 27 -45 43 -4 25 32 91 75 137 15 17 53 60 83 95 30 36 59 68 64 71 9 7
354 -105 368 -119 4 -4 10 -50 13 -102 2 -52 7 -141 10 -196 l5 -102 -30 -10
c-16 -6 -30 -13 -30 -16 0 -13 376 -146 411 -146 34 0 20 18 -31 42 -38 17
-55 33 -73 68 -35 65 -41 121 -72 665 -14 252 -17 306 -31 535 -6 101 -15 140
-33 140 -5 0 -18 -8 -29 -17z m-112 -420 c1 -60 3 -159 5 -221 2 -61 0 -114
-5 -117 -7 -4 -287 89 -297 99 -2 2 13 23 33 47 58 70 97 118 174 212 39 48
75 87 80 87 4 0 9 -48 10 -107z"/>
<path d="M13237 17753 c-13 -12 -7 -19 33 -42 47 -26 70 -56 70 -91 0 -14 -19
-61 -41 -105 -38 -75 -63 -121 -169 -320 -145 -270 -180 -359 -184 -469 -1
-34 1 -80 6 -104 26 -142 161 -280 358 -364 70 -31 83 -33 190 -33 108 0 119
2 180 31 116 55 207 156 300 329 23 44 50 94 60 110 9 17 43 80 75 140 154
293 172 315 236 294 19 -7 39 -15 44 -20 15 -11 43 7 30 20 -6 5 -51 30 -101
55 -50 25 -130 68 -177 95 -48 28 -94 51 -104 53 -29 5 -25 -20 5 -36 47 -24
82 -71 76 -103 -4 -23 -92 -199 -174 -348 -15 -27 -53 -99 -85 -160 -146 -277
-232 -363 -371 -370 -94 -4 -216 46 -275 112 -99 113 -102 255 -8 450 31 64
231 440 282 528 68 120 86 131 162 99 20 -8 39 -13 42 -10 15 14 -14 36 -112
85 -59 29 -129 65 -154 80 -62 37 -179 101 -184 101 -2 0 -7 -3 -10 -7z"/>
<path d="M6000 17698 c-100 -24 -162 -45 -225 -76 -224 -110 -362 -279 -400
-492 -8 -40 -9 -185 -2 -215 29 -124 55 -189 112 -275 152 -229 391 -332 653
-283 221 42 444 201 531 379 54 109 71 192 67 314 -5 130 -23 198 -83 320 -60
119 -164 230 -263 278 -36 18 -74 34 -85 37 -11 2 -38 9 -60 15 -46 12 -194
11 -245 -2z m120 -153 c156 -63 275 -186 364 -376 157 -336 77 -588 -213 -668
-289 -80 -573 127 -701 511 -26 77 -33 201 -15 270 33 123 143 228 290 274 58
18 219 12 275 -11z"/>
<path d="M4784 17033 c-44 -31 -131 -90 -194 -131 -63 -41 -118 -80 -122 -86
-15 -24 10 -24 55 -2 26 14 56 22 67 19 30 -8 71 -60 205 -259 66 -99 122
-181 125 -184 24 -23 300 -453 310 -482 13 -44 4 -66 -40 -98 -16 -12 -30 -26
-30 -31 0 -22 42 -5 116 49 43 32 139 97 212 145 122 80 152 107 119 107 -7 0
-39 -14 -71 -31 -100 -54 -67 -90 -500 551 -117 173 -218 329 -223 346 -13 36
3 72 42 98 24 16 35 46 16 46 -5 0 -44 -25 -87 -57z"/>
<path d="M9337 16995 c-1 -2 -63 -6 -137 -9 -74 -4 -153 -8 -175 -11 -22 -2
-74 -6 -115 -10 -41 -3 -88 -8 -105 -10 -16 -2 -57 -7 -89 -10 -78 -7 -433
-63 -518 -81 -37 -7 -80 -16 -96 -19 -70 -12 -307 -68 -440 -105 -1147 -310
-2216 -903 -3091 -1715 -100 -92 -355 -350 -436 -440 -44 -50 -92 -103 -108
-120 -15 -16 -33 -37 -41 -45 -7 -8 -35 -42 -61 -75 -27 -33 -51 -62 -55 -65
-12 -10 -208 -267 -287 -375 -383 -532 -724 -1181 -945 -1799 -71 -200 -179
-549 -203 -659 -2 -10 -7 -27 -10 -37 -3 -10 -8 -27 -10 -37 -2 -10 -17 -79
-34 -153 -16 -74 -37 -175 -46 -225 -10 -49 -19 -97 -20 -106 -2 -9 -6 -34 -9
-55 -4 -22 -11 -64 -16 -94 -5 -30 -12 -77 -15 -105 -6 -50 -8 -63 -19 -140
-7 -47 -12 -101 -21 -210 -4 -44 -9 -96 -11 -115 -24 -235 -24 -839 1 -1145
16 -200 21 -253 35 -345 5 -36 12 -87 15 -115 3 -27 12 -88 20 -135 7 -47 16
-98 19 -115 4 -30 45 -237 51 -265 2 -8 11 -47 20 -87 8 -40 33 -143 56 -229
325 -1260 993 -2428 1920 -3354 85 -85 182 -180 215 -210 33 -30 80 -73 105
-95 208 -191 626 -511 874 -670 113 -72 247 -155 288 -179 23 -13 87 -49 142
-81 301 -172 732 -370 1090 -500 213 -77 561 -185 678 -210 10 -2 27 -7 37
-10 10 -3 27 -8 37 -10 10 -2 41 -9 68 -15 28 -6 57 -13 65 -15 50 -12 372
-75 405 -80 22 -3 69 -10 105 -16 132 -20 177 -27 250 -34 30 -3 71 -8 90 -10
19 -3 67 -8 105 -11 39 -3 93 -7 120 -10 275 -24 903 -24 1135 0 19 2 71 7
115 11 109 9 163 14 210 21 77 11 90 13 140 19 28 3 75 10 105 15 30 5 72 12
94 16 21 3 46 7 55 9 9 1 57 10 106 20 50 9 151 30 225 46 74 17 143 32 153
34 10 2 27 7 37 10 10 3 27 8 37 10 670 162 1495 519 2108 913 222 142 563
386 685 490 19 16 69 57 110 92 555 460 1091 1069 1480 1680 401 630 683 1256
889 1976 52 180 114 440 137 567 3 18 9 50 14 72 5 22 11 60 15 85 3 25 8 52
10 60 2 8 6 33 10 55 3 22 10 67 15 100 5 33 11 83 15 110 3 28 8 64 10 80 3
17 7 57 11 90 3 33 7 80 9 105 35 370 39 958 10 1259 -3 25 -7 78 -10 116 -6
91 -13 155 -25 235 -5 36 -12 88 -15 115 -3 28 -12 88 -20 135 -7 47 -16 99
-19 115 -4 30 -45 237 -51 265 -2 8 -11 48 -20 87 -8 40 -31 135 -51 210 -20
76 -37 143 -38 148 -8 32 -55 184 -107 343 -352 1070 -972 2074 -1780 2882
-85 85 -182 180 -215 210 -33 30 -80 73 -105 95 -208 191 -626 511 -874 670
-113 72 -247 155 -288 179 -23 13 -87 49 -142 81 -440 252 -1046 506 -1535
645 -41 12 -95 28 -120 35 -56 17 -235 62 -273 69 -15 2 -35 7 -45 10 -9 3
-28 7 -42 10 -14 3 -81 16 -150 30 -69 14 -138 27 -155 30 -71 12 -233 38
-265 42 -69 8 -115 15 -140 19 -14 2 -59 7 -100 11 -41 3 -82 8 -91 9 -8 2
-62 6 -120 10 -57 3 -124 8 -149 11 -46 4 -688 12 -693 9z m728 -278 c28 -3
86 -8 130 -11 44 -4 94 -9 110 -11 17 -3 57 -7 90 -10 68 -6 138 -14 175 -21
14 -2 45 -6 70 -10 25 -3 83 -12 130 -21 47 -8 99 -17 115 -19 17 -3 64 -12
105 -20 1128 -225 2164 -708 3060 -1425 339 -271 678 -597 945 -909 49 -58 92
-107 95 -110 3 -3 46 -57 96 -120 456 -576 824 -1223 1079 -1895 74 -195 153
-430 185 -550 4 -16 24 -88 43 -160 43 -160 100 -416 121 -540 3 -16 10 -57
15 -90 20 -111 47 -305 56 -395 3 -30 8 -80 11 -110 3 -30 7 -73 9 -95 27
-268 27 -926 0 -1196 -27 -277 -31 -313 -45 -399 -5 -30 -12 -75 -15 -100 -18
-136 -93 -507 -130 -645 -9 -33 -27 -100 -40 -150 -151 -568 -418 -1195 -738
-1735 -399 -672 -926 -1298 -1511 -1795 -33 -27 -64 -55 -70 -60 -6 -6 -63
-51 -126 -101 -717 -567 -1504 -978 -2380 -1244 -115 -35 -391 -108 -470 -124
-14 -3 -81 -17 -150 -31 -136 -28 -313 -59 -400 -70 -30 -4 -57 -8 -60 -10 -3
-2 -44 -7 -90 -10 -47 -4 -87 -9 -90 -10 -3 -2 -41 -6 -85 -10 -44 -4 -91 -8
-105 -11 -156 -25 -1043 -25 -1200 0 -14 3 -56 7 -95 10 -87 8 -139 14 -240
27 -44 6 -96 13 -115 15 -19 2 -57 9 -85 14 -27 5 -70 12 -95 15 -25 4 -128
24 -230 46 -102 22 -196 42 -209 45 -42 9 -283 75 -386 105 -246 74 -627 215
-808 298 -37 17 -70 31 -73 31 -7 0 -386 189 -479 240 -722 391 -1444 974
-1980 1600 -49 58 -92 107 -95 110 -18 17 -201 254 -275 355 -160 219 -362
536 -490 770 -45 81 -245 481 -245 489 0 3 -14 36 -31 73 -83 181 -224 562
-298 808 -30 103 -96 344 -105 386 -3 13 -23 107 -45 209 -22 102 -43 208 -46
235 -3 28 -8 57 -10 65 -3 8 -11 65 -20 125 -21 144 -24 170 -30 235 -3 30 -7
73 -10 95 -23 198 -30 352 -29 720 1 368 6 479 30 698 3 27 7 68 9 90 5 55 15
137 20 162 2 11 7 43 10 70 12 87 43 266 70 395 14 69 28 136 31 150 3 14 21
88 40 165 130 521 320 1024 570 1510 62 121 103 195 206 375 66 114 303 476
350 535 5 6 32 42 60 80 492 669 1184 1317 1868 1749 69 43 141 89 160 101
311 199 861 463 1280 614 169 61 464 153 575 180 22 5 84 21 137 35 54 13 175
41 270 60 198 40 260 51 401 71 27 4 56 8 65 9 16 3 86 12 172 21 19 2 64 7
100 10 36 3 81 7 100 10 19 2 80 7 135 10 55 3 101 8 103 10 5 5 767 -3 827
-8z"/>
<path d="M9328 16365 c-2 -2 -59 -6 -128 -9 -69 -4 -138 -8 -155 -10 -16 -2
-66 -7 -110 -11 -44 -3 -91 -8 -105 -10 -14 -2 -47 -6 -75 -10 -71 -8 -106
-13 -140 -18 -16 -3 -50 -8 -75 -12 -44 -6 -285 -50 -325 -59 -1014 -222
-1865 -607 -2665 -1205 -85 -63 -164 -123 -175 -132 -402 -335 -641 -566 -920
-893 -247 -288 -507 -651 -680 -948 -347 -596 -583 -1171 -744 -1813 -37 -148
-95 -438 -116 -576 -9 -57 -18 -115 -20 -129 -2 -14 -7 -52 -10 -85 -4 -33 -8
-71 -10 -85 -3 -23 -9 -77 -20 -195 -13 -147 -19 -308 -19 -560 -1 -346 12
-562 49 -857 8 -63 44 -299 50 -328 3 -14 10 -52 16 -85 6 -33 12 -69 14 -80
17 -93 91 -392 130 -525 9 -30 17 -62 19 -70 2 -8 28 -87 56 -175 175 -534
384 -976 713 -1509 7 -11 50 -76 96 -145 481 -718 1099 -1340 1821 -1832 104
-71 386 -249 395 -249 3 0 22 -11 43 -24 163 -107 656 -340 958 -454 113 -43
421 -148 464 -158 8 -2 40 -10 70 -19 133 -39 432 -113 525 -130 11 -2 47 -8
80 -14 33 -6 71 -13 85 -16 32 -7 269 -42 340 -51 30 -3 62 -8 70 -9 15 -2
123 -13 211 -20 323 -27 837 -26 1124 0 118 11 172 17 195 20 14 2 52 6 85 10
33 3 71 8 85 10 14 2 72 11 129 20 843 126 1760 465 2491 922 482 301 846 590
1244 989 183 182 249 255 456 500 13 16 85 110 160 209 371 494 648 987 881
1566 60 150 182 504 214 624 59 215 81 308 121 490 11 48 53 284 59 325 3 25
9 59 11 75 6 33 11 66 19 140 4 28 8 61 10 75 2 14 7 61 10 105 4 44 9 94 11
110 25 208 24 901 -1 1120 -3 22 -8 67 -11 100 -10 114 -11 124 -29 260 -17
122 -27 190 -30 195 -2 3 -6 26 -9 51 -3 25 -10 66 -15 90 -5 24 -12 55 -14
69 -22 119 -87 390 -131 540 -9 30 -18 63 -21 74 -2 10 -36 112 -74 225 -161
477 -353 890 -613 1321 -93 155 -82 138 -177 279 -481 718 -1099 1340 -1821
1832 -109 74 -387 249 -396 249 -3 0 -18 8 -32 19 -81 57 -527 279 -715 356
-34 14 -71 30 -82 35 -105 48 -378 146 -570 205 -82 25 -163 50 -180 55 -84
26 -383 96 -495 117 -14 2 -44 8 -67 13 -23 6 -63 12 -89 15 -26 4 -50 8 -54
10 -5 3 -90 16 -203 31 -15 2 -44 6 -65 9 -20 3 -62 8 -92 11 -30 3 -68 7 -85
8 -16 2 -73 7 -125 11 -52 3 -115 9 -140 12 -47 5 -677 12 -682 8z m-557 -412
c-5 -10 -44 -53 -85 -96 -42 -42 -76 -81 -76 -85 0 -7 -57 -90 -70 -102 -3 -3
-25 -36 -50 -74 -42 -65 -49 -71 -134 -112 -49 -24 -100 -44 -112 -44 -57 0
-80 -56 -55 -133 11 -32 19 -39 55 -48 l42 -10 -50 -102 c-97 -193 -250 -573
-315 -782 -13 -38 -26 -79 -31 -90 -5 -11 -15 -39 -21 -63 -10 -34 -16 -41
-31 -37 -10 3 -26 7 -36 10 -10 3 -35 39 -57 85 -40 82 -47 88 -126 106 -41 9
-166 6 -228 -7 l-59 -11 -108 48 c-118 53 -118 55 2 68 32 3 70 8 84 10 14 3
48 7 77 10 69 8 96 19 122 51 41 54 48 149 13 189 -56 62 -135 64 -262 7 -203
-92 -243 -99 -335 -63 -34 13 -57 17 -72 11 -18 -6 -23 -5 -23 7 0 8 11 19 25
24 21 8 25 16 25 49 0 47 -12 58 -70 65 -38 4 -213 18 -230 18 -26 0 -41 -4
-52 -16 -12 -12 -19 -9 -49 15 l-34 28 25 23 c13 13 47 42 74 65 l49 43 17
-51 c27 -80 37 -84 92 -44 26 19 55 46 63 59 15 23 15 27 -12 78 -15 29 -29
56 -31 59 -1 3 27 29 63 57 l65 52 31 -50 c45 -73 69 -81 140 -46 27 14 32 13
48 -3 10 -10 18 -35 19 -63 2 -37 -2 -52 -23 -77 -15 -17 -33 -31 -40 -31 -8
0 -26 -16 -41 -35 l-27 -36 24 -25 c24 -26 25 -26 139 -20 183 10 212 15 267
42 51 25 52 25 89 8 35 -17 39 -17 88 0 28 10 74 29 103 42 56 27 73 55 73
126 0 44 36 122 72 155 14 14 38 23 65 24 54 4 64 12 102 89 63 126 179 256
250 280 53 17 123 63 237 156 98 79 113 101 108 152 -4 30 -2 32 29 32 17 1
61 7 97 14 36 8 69 14 73 15 4 0 3 -7 -2 -16z m-1781 -407 c0 -2 -17 -15 -37
-27 -42 -25 -329 -236 -353 -260 -8 -8 -50 -42 -92 -76 -63 -51 -85 -63 -113
-63 -44 0 -86 -21 -114 -56 l-20 -26 -42 42 c-41 40 -42 42 -21 53 12 7 54 32
94 57 149 91 375 210 623 326 77 36 75 36 75 30z m5300 -33 c247 -113 562
-283 744 -400 l69 -45 -45 -41 c-24 -23 -55 -52 -69 -64 l-24 -22 -55 51
c-176 163 -402 346 -587 475 -51 35 -93 67 -93 70 0 2 3 3 8 1 4 -2 27 -13 52
-25z m-351 -15 c250 -151 621 -433 811 -616 63 -60 64 -63 45 -77 -11 -8 -24
-18 -30 -22 -23 -19 -244 -161 -285 -185 -138 -78 -333 -178 -385 -198 -23 -9
-24 -8 -15 16 17 45 11 73 -25 113 -19 21 -35 41 -35 45 0 16 30 3 66 -28 36
-31 41 -33 65 -20 72 37 54 135 -28 150 -33 6 -69 36 -210 170 -29 28 -53 58
-53 67 0 19 32 39 52 33 83 -26 134 -8 121 42 -11 47 -33 70 -113 121 -60 38
-84 60 -100 92 -39 75 -24 166 44 271 17 26 33 48 35 48 2 0 20 -10 40 -22z
m-3341 -260 c4 -22 -33 -44 -85 -51 l-42 -5 16 34 c17 35 29 41 78 39 19 0 31
-6 33 -17z m-2506 -300 l69 -72 -83 -84 c-118 -121 -127 -130 -187 -200 -49
-58 -55 -61 -71 -47 -9 8 -24 15 -33 15 -20 0 -77 -48 -77 -65 0 -8 -5 -37
-11 -65 -16 -76 -39 -77 -142 -8 -97 66 -112 72 -140 56 -44 -23 -265 -208
-280 -233 -21 -38 49 -111 139 -144 31 -12 88 -25 126 -29 l68 -7 -70 -102
-71 -102 -47 29 c-26 17 -67 34 -92 38 -58 11 -157 -8 -213 -42 -53 -31 -143
-136 -172 -201 -39 -88 -116 -318 -111 -332 3 -8 22 -13 50 -13 41 0 51 6 113
60 37 33 70 60 73 60 4 0 20 -25 35 -55 16 -30 33 -55 37 -55 16 0 6 -27 -61
-160 -42 -84 -74 -136 -82 -134 -8 1 -34 7 -58 12 -43 10 -56 9 -96 -8 -119
-52 -168 -66 -240 -69 l-60 -2 -115 87 c-63 47 -117 88 -119 90 -9 8 187 286
328 464 269 340 628 709 946 972 208 171 543 418 568 418 5 0 41 -32 79 -72z
m2882 13 c45 -18 118 -77 146 -117 14 -20 39 -53 56 -73 17 -20 43 -55 57 -78
36 -57 147 -392 147 -443 0 -22 -12 -68 -26 -102 -48 -115 1 -188 86 -128 16
11 31 17 33 13 10 -15 3 -103 -7 -104 -15 -2 -33 -2 -181 6 -134 7 -141 7
-260 20 -38 4 -86 8 -105 10 -52 5 -132 15 -156 19 -12 2 -45 7 -74 11 -29 4
-62 9 -74 11 -12 2 -37 7 -56 10 -19 3 -69 12 -110 20 -41 7 -84 15 -95 17
-81 13 -305 73 -305 81 0 13 63 205 118 361 40 113 123 321 163 411 l23 50 33
-11 c26 -9 58 -9 140 1 58 7 143 16 187 20 45 3 82 7 84 9 8 7 151 -4 176 -14z
m4404 -68 c159 -114 292 -220 491 -388 162 -137 501 -478 651 -655 30 -36 58
-67 61 -70 37 -32 315 -405 437 -587 l61 -91 -48 -36 c-39 -27 -52 -32 -60
-22 -6 7 -28 18 -49 24 -22 7 -59 28 -83 47 -25 20 -55 35 -70 35 -33 0 -73
-31 -89 -69 -17 -42 -36 -45 -62 -11 -26 35 -47 37 -105 9 -55 -26 -102 -83
-110 -132 -5 -36 -8 -32 -98 150 -306 619 -712 1210 -1127 1638 l-78 80 83 77
c45 43 83 77 85 78 1 0 51 -35 110 -77z m-7050 -160 c2 -7 -2 -13 -10 -13 -7
0 -30 -11 -51 -25 -46 -32 -48 -22 -4 21 32 33 57 39 65 17z m6790 -212 c37
-41 74 -82 83 -91 39 -41 234 -286 311 -390 294 -399 561 -868 764 -1343 19
-44 32 -82 29 -86 -8 -14 -392 -200 -565 -274 -325 -138 -634 -248 -989 -352
-107 -31 -202 -58 -210 -60 -9 -2 -101 -25 -205 -50 -168 -41 -508 -115 -513
-111 -2 1 -9 56 -18 131 -9 82 -34 274 -40 315 -5 35 -13 87 -20 140 -3 25
-12 83 -20 130 -8 47 -17 101 -20 120 -4 34 -8 54 -21 130 -4 19 -8 44 -9 55
-2 11 -6 34 -9 50 -3 17 -9 44 -11 60 -3 17 -24 119 -46 229 -22 109 -37 202
-32 206 4 4 40 17 79 28 50 15 84 33 116 62 49 42 85 60 123 60 28 0 45 22
113 150 44 84 49 97 37 115 -7 11 -15 44 -18 74 -5 44 -12 59 -36 82 -22 19
-29 34 -26 50 3 13 5 63 6 111 l1 87 76 32 c42 17 107 46 145 65 38 18 77 36
88 39 26 9 292 155 366 201 81 51 209 138 263 177 l45 34 48 -51 c27 -28 79
-84 115 -125z m-6608 76 c0 -11 -34 8 -51 29 -12 16 -10 16 19 -1 17 -11 32
-23 32 -28z m193 -132 c19 -19 44 -35 56 -35 12 0 32 -6 44 -14 12 -7 52 -30
88 -49 l67 -37 -72 -72 c-76 -77 -130 -163 -171 -273 -36 -94 -34 -105 26
-140 27 -16 57 -40 65 -53 14 -21 14 -25 0 -41 -19 -21 -46 -84 -46 -109 0
-10 11 -24 25 -30 45 -21 374 -32 530 -19 113 10 130 14 171 42 20 14 41 25
46 25 15 0 45 -59 73 -148 16 -48 33 -90 37 -93 11 -7 0 -78 -15 -96 -5 -7
-18 -13 -28 -13 -51 0 -74 -127 -32 -172 21 -23 22 -25 8 -93 -20 -104 -46
-238 -49 -257 -1 -10 -12 -28 -23 -40 -51 -54 -61 -112 -26 -150 14 -16 14
-30 -2 -119 -5 -27 -14 -81 -20 -129 -3 -25 -7 -52 -9 -60 -5 -28 -16 -105
-20 -145 -3 -22 -9 -71 -15 -110 -13 -96 -24 -197 -23 -217 0 -10 -3 -20 -8
-23 -25 -16 -677 147 -1005 251 -44 14 -86 27 -93 30 -10 3 -8 13 7 42 21 42
46 62 100 80 41 14 65 40 101 112 35 68 46 80 145 159 122 96 124 98 129 133
3 18 8 50 11 71 7 44 21 48 36 10 25 -64 17 -118 -22 -156 -28 -27 -23 -51 21
-95 48 -49 67 -56 136 -47 50 6 84 24 84 45 0 5 9 14 20 20 15 8 31 5 74 -15
114 -52 151 -22 101 81 -15 30 -58 87 -96 127 -65 68 -84 107 -60 122 6 3 10
28 9 56 0 39 7 61 34 105 18 31 47 66 64 79 18 14 42 45 54 70 19 39 21 55 15
113 -7 66 -7 149 0 207 12 89 -48 130 -187 130 -45 -1 -83 -6 -89 -12 -7 -7
-13 -38 -15 -70 -6 -84 -10 -96 -49 -143 -36 -43 -44 -64 -49 -116 -4 -57 -48
-95 -82 -70 -17 13 -21 63 -10 123 2 10 7 44 11 76 6 49 5 56 -8 51 -22 -8
-57 13 -57 36 0 41 -21 27 -60 -40 -22 -38 -45 -70 -49 -70 -5 0 -11 22 -15
48 -4 29 -21 73 -41 107 -21 34 -33 65 -30 75 13 41 6 113 -19 188 -30 90 -39
100 -87 106 -34 3 -89 -10 -89 -22 0 -4 -18 -30 -39 -58 -37 -49 -45 -68 -55
-139 -3 -16 -7 -48 -11 -70 -7 -50 7 -85 45 -107 39 -22 49 -47 25 -64 -31
-23 -71 -17 -108 16 -68 60 -92 41 -157 -120 -28 -68 -63 -137 -78 -153 -56
-60 -140 -82 -209 -56 -30 11 -113 76 -113 88 0 9 57 27 110 36 76 12 110 52
105 122 -3 35 1 44 20 57 15 10 22 22 19 33 -3 10 2 32 10 48 9 17 16 42 16
58 0 23 -5 29 -30 34 -40 8 -100 67 -101 102 -6 96 -4 230 3 249 4 13 21 34
37 48 59 49 58 164 -1 164 -25 0 -89 -34 -108 -57 -45 -54 -75 -133 -105 -275
-10 -43 -19 -78 -22 -78 -12 0 -60 30 -76 48 -18 19 -16 23 58 132 129 192
348 475 466 603 l25 28 44 -36 c57 -47 78 -58 120 -60 43 -2 74 13 120 57 l36
35 43 -39 c24 -21 53 -38 64 -38 22 0 116 55 133 78 6 9 9 24 6 35 -5 18 -4
18 26 3 17 -9 46 -32 65 -51z m1531 -581 c11 -2 63 -12 115 -23 53 -11 112
-23 131 -26 19 -3 46 -7 60 -10 14 -2 43 -7 65 -10 23 -3 50 -7 60 -9 11 -2
45 -7 75 -11 30 -3 66 -8 80 -10 126 -18 399 -41 528 -44 42 -1 52 -4 52 -18
0 -10 17 -50 38 -88 l39 -70 -1 -1000 -1 -1000 -80 2 c-151 3 -410 13 -455 18
-25 3 -80 7 -124 10 -43 3 -83 8 -88 11 -4 3 -38 66 -75 140 -74 148 -92 174
-128 174 -44 0 -75 -48 -79 -118 -2 -54 -16 -82 -62 -130 -36 -37 -18 -36
-205 -16 -94 9 -96 12 -68 70 29 59 34 143 13 218 -22 75 -33 93 -68 108 -17
7 -74 54 -128 105 -62 60 -105 93 -120 94 -13 0 -53 2 -90 3 -37 1 -70 5 -73
8 -4 3 -2 32 4 64 5 33 13 77 16 99 14 86 25 160 25 167 0 9 59 28 87 28 34 0
110 -81 151 -161 31 -60 39 -68 125 -119 204 -121 285 -153 333 -131 29 13 31
39 5 90 -19 37 -46 64 -126 125 -67 51 -19 46 123 -15 151 -64 162 -64 183 -2
14 43 14 138 1 173 -6 14 -36 52 -67 85 -58 62 -119 144 -150 204 -19 37 -22
108 -6 124 17 17 104 -66 140 -133 18 -33 43 -68 56 -76 37 -24 97 -29 137
-10 37 18 54 49 118 219 40 105 39 109 -47 152 -61 31 -108 63 -153 107 -46
45 -108 88 -154 108 -41 19 -54 36 -62 77 -1 6 11 23 26 38 26 25 28 33 24 79
-12 133 -35 196 -71 196 -7 0 -32 18 -55 40 -24 22 -54 43 -68 46 -39 8 -85
33 -97 53 -11 17 -9 18 30 9 23 -5 51 -11 61 -14z m1489 -235 c4 -35 -12 -91
-30 -102 -5 -3 -9 34 -10 85 -1 88 -1 90 17 72 10 -11 20 -35 23 -55z m1692
-554 c21 -99 39 -191 41 -205 2 -14 11 -59 19 -100 7 -41 16 -91 19 -110 3
-19 7 -44 10 -55 2 -11 7 -42 10 -68 4 -27 9 -57 11 -67 2 -11 11 -70 20 -132
9 -62 18 -124 20 -138 11 -78 25 -181 30 -225 3 -27 8 -61 10 -75 2 -14 7 -50
10 -80 3 -30 8 -67 11 -82 6 -29 1 -32 -76 -43 -25 -4 -54 -9 -65 -11 -10 -2
-37 -6 -60 -9 -22 -3 -47 -8 -55 -10 -8 -2 -40 -6 -71 -10 -31 -3 -65 -7 -75
-9 -11 -2 -48 -7 -84 -11 -36 -4 -72 -8 -80 -10 -8 -1 -46 -6 -85 -10 -38 -4
-81 -8 -95 -10 -14 -1 -59 -6 -100 -9 -41 -4 -95 -9 -120 -11 -65 -6 -205 -16
-280 -20 -236 -12 -395 -18 -535 -19 l-160 -1 -1 557 c-2 597 -3 579 47 563
16 -5 16 -10 -6 -66 -29 -73 -28 -162 2 -230 11 -25 50 -80 87 -122 58 -66
108 -147 91 -147 -3 0 1 -13 10 -30 15 -29 38 -39 127 -54 52 -9 127 -52 168
-95 58 -61 102 -71 181 -40 15 6 32 22 38 36 13 29 47 186 55 255 3 24 8 65
11 92 7 58 34 114 75 156 17 17 30 34 31 38 0 4 2 30 5 57 14 176 13 169 56
229 15 21 28 46 28 55 1 40 42 63 121 67 68 3 108 14 163 43 66 35 260 230
272 273 7 26 20 39 64 61 29 15 57 24 61 20 4 -5 24 -89 44 -188z m-3518 103
c7 -41 7 -48 4 -82 0 -8 -22 -38 -47 -68 -54 -62 -81 -116 -89 -178 -5 -43
-35 -94 -35 -60 0 8 16 93 35 189 34 165 37 176 70 208 19 18 39 33 44 33 6 0
14 -19 18 -42z m-2739 -170 c23 -27 54 -30 76 -8 18 18 61 11 103 -17 51 -32
63 -58 63 -129 l0 -55 -30 18 c-17 10 -38 28 -46 41 -27 41 -57 45 -167 22
-55 -11 -106 -20 -114 -20 -21 0 -11 55 25 134 35 75 37 76 90 14z m-933 -178
c-7 -14 -27 -43 -43 -66 l-30 -41 -89 -6 c-48 -3 -107 -12 -130 -21 -24 -8
-43 -13 -43 -10 0 3 39 73 86 154 l87 148 87 -66 c85 -65 87 -68 75 -92z
m11022 -30 c98 -172 195 -360 191 -372 -2 -5 -57 60 -121 146 -65 85 -143 180
-173 211 -29 31 -54 59 -54 63 1 12 85 70 91 63 4 -3 34 -53 66 -111z m-891
-457 c-42 -90 -107 -188 -188 -279 -74 -85 -109 -156 -109 -221 0 -29 14 -87
35 -148 25 -69 36 -118 36 -156 0 -42 7 -68 26 -103 44 -78 80 -87 214 -51 30
8 60 15 67 15 11 0 26 -30 28 -55 2 -25 17 -55 28 -55 37 -1 48 -35 62 -192 5
-51 4 -57 -15 -63 -27 -9 -27 -9 -34 49 -17 123 -103 196 -155 130 -19 -25
-21 -40 -21 -189 0 -147 2 -165 20 -188 28 -35 25 -54 -10 -72 -16 -9 -30 -13
-30 -10 0 11 -80 -36 -105 -62 -25 -26 -128 -178 -235 -346 -46 -73 -74 -91
-145 -96 -56 -3 -88 -21 -100 -56 -9 -28 -13 -30 -47 -24 -77 12 -116 -11
-125 -78 l-5 -39 59 -32 c32 -17 66 -39 75 -49 21 -22 74 -130 83 -166 l7 -27
-918 2 -918 3 -2 125 c-2 140 -14 548 -19 626 -1 28 -6 113 -10 190 -3 76 -8
155 -10 174 -2 19 -6 78 -9 130 -4 52 -9 118 -11 145 -3 28 -7 77 -9 110 -3
33 -8 96 -12 140 -13 142 -25 125 106 151 63 13 126 25 140 28 25 4 68 14 245
56 50 12 98 23 108 25 10 2 27 7 37 10 10 3 27 7 37 9 92 18 744 218 828 255
45 19 182 71 188 71 29 0 550 233 737 329 52 27 96 48 98 46 2 -2 -8 -30 -22
-62z m-7891 -542 c236 -71 505 -139 793 -203 l104 -22 -7 -66 c-3 -36 -8 -81
-10 -100 -3 -19 -7 -66 -10 -105 -19 -261 -18 -254 -40 -289 -21 -32 -30 -174
-13 -214 14 -33 11 -212 -4 -229 -15 -19 -41 -16 -85 10 -54 31 -85 57 -113
95 -23 31 -24 40 -25 192 -1 196 1 193 -130 216 -63 11 -106 25 -143 47 -128
76 -194 109 -306 153 -65 26 -131 58 -146 71 -31 26 -65 92 -75 146 -8 40 -22
56 -54 62 -34 6 -40 13 -57 72 -19 65 -15 131 11 188 30 65 28 65 108 38 39
-13 131 -41 202 -62z m5199 -456 c4 -49 9 -106 11 -125 2 -19 6 -75 10 -125 3
-49 8 -115 10 -145 8 -88 16 -239 30 -555 2 -44 7 -200 10 -347 l7 -268 -1030
0 -1029 0 0 788 0 787 111 1 c128 0 502 12 591 18 33 3 103 8 155 11 52 3 113
8 135 10 22 2 72 7 110 10 39 3 106 10 150 15 44 5 107 12 140 15 33 4 71 8
85 10 14 2 43 6 65 9 22 3 56 8 75 10 19 3 85 12 145 21 61 10 130 20 155 24
l45 6 6 -40 c4 -22 10 -80 13 -130z m-2744 31 c76 -6 399 -18 501 -20 l56 0 0
-542 0 -542 -22 14 c-12 8 -42 17 -66 20 -51 7 -97 31 -102 53 -2 9 5 41 16
71 14 41 20 88 22 190 3 170 -9 219 -64 258 -41 29 -93 107 -105 157 -12 49
-23 55 -92 54 -72 -2 -101 12 -136 64 -11 18 -45 52 -74 77 -61 52 -76 78 -68
119 6 28 25 41 49 35 6 -2 44 -5 85 -8z m-5282 -85 c17 -16 32 -33 32 -38 0
-6 12 -23 26 -39 33 -37 41 -58 49 -125 3 -30 15 -76 25 -104 11 -27 26 -75
35 -106 15 -55 17 -57 57 -62 65 -9 67 -13 82 -177 3 -34 11 -50 35 -70 54
-45 72 -132 57 -275 -3 -28 28 -110 60 -158 22 -34 27 -50 24 -97 -1 -30 -3
-84 -5 -120 -2 -36 -4 -82 -4 -102 l-1 -38 -501 0 -501 0 6 148 c4 81 9 165
11 187 2 22 7 69 10 105 7 80 26 235 40 330 3 16 7 44 10 60 2 17 7 50 10 73
10 62 35 180 40 186 3 2 5 -8 5 -23 0 -24 3 -26 23 -20 71 22 95 63 101 171 9
155 58 247 156 295 69 34 78 34 118 -1z m5500 -803 c7 -7 12 -18 12 -25 0 -7
-41 -100 -92 -208 -50 -107 -89 -197 -87 -199 6 -6 63 -14 149 -21 41 -3 89
-8 105 -11 40 -7 134 -43 165 -64 14 -9 39 -22 56 -29 30 -12 31 -13 31 -81
l1 -70 -285 0 -284 0 20 29 c14 19 21 45 21 76 l0 46 -52 -6 c-98 -13 -130
-13 -176 0 -72 19 -169 73 -193 106 -22 31 -22 30 -3 152 13 80 -65 107 -175
61 -124 -52 -213 -120 -266 -203 -27 -43 -80 -86 -95 -76 -17 11 10 58 69 120
32 33 67 78 79 100 21 41 48 69 93 97 23 15 132 52 183 62 11 3 30 7 42 10 33
7 82 -23 111 -70 20 -31 41 -49 75 -64 82 -35 127 -21 130 40 2 60 -1 68 -32
79 -43 15 -37 28 18 36 240 34 242 34 260 74 12 26 26 38 47 42 47 10 60 10
73 -3z m-5035 -918 c2 -3 7 -106 11 -230 3 -124 8 -247 10 -275 3 -27 7 -93
11 -145 3 -52 8 -104 10 -115 3 -11 7 -51 10 -90 8 -99 15 -163 29 -257 3 -21
8 -55 11 -75 14 -101 47 -290 79 -448 25 -125 43 -202 73 -320 19 -77 36 -147
38 -155 2 -8 13 -46 25 -85 12 -38 23 -79 25 -90 7 -31 119 -370 158 -477 l35
-96 -81 -48 c-104 -59 -334 -212 -452 -297 -69 -51 -93 -63 -102 -54 -36 38
-281 521 -368 727 -153 363 -291 789 -360 1110 -9 41 -18 84 -21 95 -2 11 -6
31 -9 44 -2 14 -9 47 -14 75 -12 60 -19 98 -27 146 -3 19 -7 46 -10 60 -2 14
-7 45 -10 70 -8 60 -10 77 -18 130 -4 25 -9 68 -11 95 -3 28 -8 75 -11 105 -9
87 -12 126 -19 275 -12 236 -13 310 -4 320 8 10 983 15 992 5z m4282 -13 c22
-31 84 -33 141 -5 l49 24 445 -2 c245 -1 448 -2 451 -3 3 0 6 -383 6 -850 l0
-848 -86 0 c-99 0 -472 -12 -546 -18 -27 -2 -95 -7 -150 -10 -151 -10 -201
-14 -258 -19 -28 -3 -99 -11 -157 -16 -58 -6 -123 -13 -145 -16 -22 -2 -56 -7
-75 -9 -114 -14 -256 -34 -291 -40 -9 -2 -40 -6 -70 -10 -30 -4 -72 -11 -94
-16 -22 -4 -43 -9 -47 -9 -9 0 -16 40 -23 130 -4 41 -8 95 -10 120 -2 25 -7
83 -10 130 -4 47 -8 105 -10 129 -2 24 -7 106 -11 180 -6 136 -6 137 20 175
14 21 26 42 26 47 0 21 192 505 211 534 26 37 82 74 153 100 27 10 63 30 79
45 29 26 31 32 30 94 l-2 67 55 57 54 57 126 0 c110 0 127 -2 139 -18z m3354
-2 c4 -11 6 -31 5 -45 -1 -14 -5 -176 -9 -360 -4 -184 -8 -355 -10 -380 -1
-25 -6 -112 -10 -195 -7 -165 -11 -233 -20 -345 -3 -41 -8 -111 -11 -155 -2
-44 -6 -93 -9 -110 -2 -16 -6 -70 -10 -120 -4 -49 -9 -97 -11 -105 -1 -8 -3
-23 -3 -34 -1 -18 -20 -19 -114 0 -12 2 -39 6 -62 9 -22 3 -47 8 -55 10 -14 4
-173 28 -275 41 -22 3 -51 7 -65 9 -14 2 -50 6 -81 10 -31 3 -65 7 -75 9 -11
2 -53 7 -94 11 -41 3 -88 8 -105 10 -16 2 -64 7 -105 10 -41 4 -91 8 -110 10
-19 2 -87 6 -150 10 -63 4 -131 8 -150 10 -19 2 -132 7 -250 11 -118 4 -228 7
-245 8 l-30 1 -1 850 -1 850 1025 0 c1016 0 1025 0 1031 -20z m2011 14 c0 -28
-310 -44 -373 -20 -47 18 -66 13 -115 -33 l-47 -45 4 -88 c5 -119 6 -355 2
-423 -5 -79 -4 -85 24 -118 18 -21 36 -31 67 -35 31 -4 49 -14 65 -34 22 -27
50 -97 48 -118 -7 -63 -35 -103 -101 -147 -76 -49 -152 -163 -174 -260 -24
-109 -33 -134 -61 -174 -15 -23 -59 -66 -96 -95 -37 -29 -92 -78 -121 -109
-58 -59 -167 -216 -228 -326 -20 -38 -39 -71 -40 -73 -2 -2 -83 17 -181 43
-98 25 -209 53 -248 62 -38 9 -77 17 -85 19 -8 2 -58 13 -110 24 -52 11 -105
23 -117 26 -14 3 -21 11 -19 23 2 9 7 51 10 92 4 41 9 91 11 110 2 19 6 76 9
125 4 50 9 110 11 135 21 235 43 738 50 1165 2 143 4 265 5 270 0 11 1810 15
1810 4z m-9347 -839 c27 -41 71 -100 97 -130 69 -82 96 -127 124 -210 62 -186
133 -343 195 -434 17 -25 31 -49 31 -54 0 -6 3 -12 8 -14 4 -1 18 -23 31 -48
74 -139 185 -275 215 -264 25 10 43 54 40 98 -2 32 -13 50 -52 90 -27 28 -63
71 -79 96 -32 48 -83 152 -83 169 0 5 -15 22 -34 38 -23 19 -35 40 -39 65 -3
20 -17 54 -31 75 -26 38 -33 68 -18 77 15 9 31 -10 105 -136 41 -69 146 -224
232 -343 188 -259 220 -310 245 -395 23 -75 70 -149 129 -203 22 -20 41 -39
41 -41 0 -2 -62 -30 -137 -61 -174 -73 -268 -117 -466 -216 -155 -78 -158 -79
-166 -57 -129 340 -280 878 -340 1213 -6 33 -13 71 -16 85 -3 13 -7 42 -10 65
-3 22 -8 47 -10 55 -3 8 -7 35 -10 59 -3 23 -7 46 -9 50 -2 3 -6 33 -10 66 -3
33 -8 69 -10 80 -2 11 -7 47 -10 80 -4 33 -9 71 -11 85 -8 55 -14 164 -8 150
3 -8 29 -49 56 -90z m2898 -392 c0 -24 2 -50 3 -58 2 -8 6 -63 10 -121 6 -103
12 -178 21 -269 2 -25 7 -84 11 -131 l6 -86 -32 -7 c-65 -13 -68 -11 -64 45 4
68 -18 144 -70 247 -68 134 -77 188 -45 262 17 40 130 159 152 160 4 0 7 -19
8 -42z m-464 -243 c69 -10 92 -33 132 -130 117 -285 122 -295 155 -312 27 -15
28 -18 11 -21 -170 -31 -715 -174 -979 -257 -81 -25 -149 -45 -151 -43 -1 2
-17 29 -35 61 l-32 57 -2 203 c-1 111 2 216 6 234 10 36 124 143 184 172 46
22 109 19 172 -10 112 -50 182 -55 182 -11 0 32 24 52 70 61 52 9 210 7 287
-4z m2640 -1261 l0 -845 -26 5 c-14 3 -57 8 -96 12 -142 11 -143 12 -275 119
-57 46 -127 92 -175 115 -54 25 -95 53 -127 85 -52 55 -59 56 -243 42 -132
-11 -176 2 -386 108 -173 87 -210 97 -234 58 -19 -30 -44 -47 -107 -70 -81
-29 -84 -29 -92 10 -22 107 -78 463 -91 572 -3 28 -7 64 -10 80 -6 36 -11 79
-21 160 -3 33 -8 68 -10 79 -2 10 -6 49 -10 87 -6 66 -5 68 17 73 41 8 142 25
184 30 22 3 90 13 150 21 145 21 170 24 235 30 61 6 127 13 180 20 19 3 67 8
105 10 39 3 90 7 115 10 124 13 322 23 590 31 118 3 216 7 217 8 1 0 26 0 55
-2 l55 -4 0 -844z m468 842 c110 -4 220 -8 245 -10 25 -2 97 -7 160 -11 63 -3
133 -8 155 -10 22 -2 72 -7 110 -10 39 -4 84 -8 100 -10 17 -2 62 -7 100 -10
39 -4 77 -8 85 -10 8 -2 44 -6 80 -10 36 -4 72 -8 80 -10 8 -2 44 -6 80 -10
36 -4 67 -8 70 -10 3 -2 28 -6 55 -9 44 -6 112 -16 210 -32 17 -2 44 -7 60
-11 30 -6 60 -11 83 -12 13 -1 13 -18 -8 -181 -5 -41 -12 -97 -15 -125 -4 -27
-8 -61 -10 -75 -2 -14 -6 -43 -9 -65 -3 -22 -13 -89 -21 -150 -9 -60 -18 -126
-21 -145 -3 -19 -7 -41 -9 -48 -3 -7 -8 -39 -11 -70 -3 -31 -8 -60 -9 -63 -2
-3 -7 -28 -10 -55 -4 -27 -27 -150 -51 -274 -25 -124 -46 -234 -48 -245 -8
-40 -97 -421 -108 -460 -6 -22 -12 -44 -13 -50 -9 -42 -47 -173 -54 -183 -6
-9 -15 -10 -33 -3 -58 22 -465 105 -618 127 -19 2 -48 7 -65 9 -16 3 -50 7
-75 10 -25 3 -58 8 -75 10 -16 3 -55 7 -85 11 -30 3 -89 16 -130 29 -99 30
-210 52 -273 54 -27 1 -59 28 -63 53 -4 26 -12 64 -19 93 -11 43 -53 126 -79
153 l-21 24 -1 898 -1 899 26 3 c14 2 28 3 31 2 3 -1 95 -5 205 -8z m-2570
-218 c2 -13 6 -46 9 -73 4 -28 9 -66 11 -85 36 -282 50 -389 60 -450 2 -14 7
-45 10 -70 3 -25 7 -52 10 -60 3 -8 7 -31 9 -50 4 -34 52 -313 60 -357 5 -25
-15 -25 -44 0 -55 46 -107 56 -235 45 -67 -7 -109 9 -159 58 -44 45 -50 69
-50 210 -1 92 -5 139 -15 157 -18 33 -70 57 -196 92 -55 15 -116 32 -135 39
l-35 12 1 75 c1 40 4 92 7 114 16 106 27 197 24 207 -1 7 32 21 83 35 81 21
337 80 390 89 14 3 61 13 105 23 44 9 82 16 84 14 2 -1 5 -13 6 -25z m4508
-13 c22 -3 95 -19 164 -35 69 -17 135 -32 147 -34 11 -3 48 -12 81 -21 33 -9
68 -18 77 -20 29 -6 212 -55 214 -58 4 -4 17 -202 16 -235 0 -18 -13 -54 -27
-79 -27 -49 -31 -67 -44 -183 -17 -157 1 -197 142 -317 45 -39 87 -99 87 -124
0 -29 44 -73 137 -137 185 -126 243 -141 338 -85 83 49 136 66 215 69 67 2 92
10 241 73 91 39 178 71 192 71 16 0 44 -16 72 -40 45 -39 47 -40 119 -38 93 1
99 -2 81 -51 -25 -73 -190 -377 -317 -583 -154 -253 -368 -554 -524 -738 -133
-156 -179 -208 -322 -357 -52 -56 -52 -56 -75 -37 -12 11 -24 21 -27 24 -3 3
-48 37 -100 76 -336 248 -706 437 -1175 600 -119 41 -179 67 -178 76 1 7 33
137 71 288 60 233 166 728 186 865 4 22 13 76 21 120 7 44 16 98 20 120 3 22
10 65 15 95 5 30 12 73 15 95 3 22 7 56 10 75 5 35 8 61 21 155 3 28 8 58 10
69 2 10 6 44 9 75 4 31 8 66 10 79 2 13 7 54 11 92 4 44 10 67 18 65 6 -2 28
-7 49 -10z m-5467 -212 c-20 -39 -65 -78 -105 -92 -45 -15 -129 -13 -166 3
-27 12 -28 14 -10 22 24 10 277 92 288 93 4 1 1 -11 -7 -26z m-391 -313 c77
-17 91 -19 145 -20 41 -1 55 -10 155 -87 94 -74 121 -90 190 -111 160 -49 227
-95 315 -217 134 -186 309 -300 440 -288 125 11 158 -1 207 -76 78 -121 70
-214 -28 -321 -22 -25 -57 -63 -77 -85 l-37 -40 -1 -140 c-1 -77 -3 -151 -4
-165 -6 -50 1 -69 45 -126 25 -31 45 -60 45 -64 0 -3 -78 -36 -172 -74 -145
-57 -315 -131 -378 -165 -8 -4 -55 -29 -103 -55 -140 -74 -303 -175 -422 -260
-60 -43 -115 -81 -122 -83 -11 -4 -76 60 -169 166 -22 24 -50 56 -63 70 -64
71 -261 323 -358 458 -201 282 -382 584 -538 898 -105 210 -226 488 -217 497
8 8 428 218 436 218 2 0 35 14 73 31 37 16 79 35 93 41 14 6 34 15 45 20 11 4
69 28 129 51 l110 43 100 -51 c56 -28 128 -57 161 -65z m-1254 -550 c232 -534
568 -1090 923 -1530 64 -79 240 -284 266 -310 8 -9 37 -39 63 -66 l48 -51 -83
-81 -83 -81 -29 19 c-50 31 -226 163 -342 256 -213 171 -318 267 -544 494
-159 159 -232 238 -331 355 -19 22 -37 42 -40 45 -41 36 -330 425 -449 605
l-70 107 83 62 c71 54 273 189 387 261 81 51 125 74 131 67 3 -4 35 -72 70
-152z m9372 -725 c2 -120 -22 -180 -141 -358 -64 -96 -92 -167 -105 -263 -15
-110 -27 -206 -32 -269 -4 -50 -11 -74 -24 -85 -10 -8 -65 -54 -122 -101 -118
-98 -281 -221 -416 -316 l-93 -64 -74 78 -75 78 83 85 c166 170 327 360 485
570 55 74 105 140 109 145 30 37 241 364 307 476 90 153 97 155 98 24z m-3037
-511 c50 -13 64 -20 59 -32 -3 -8 -22 -65 -41 -126 -74 -230 -232 -646 -274
-724 -5 -9 -45 -91 -90 -181 -44 -90 -90 -176 -100 -192 -11 -15 -20 -30 -20
-34 0 -12 -154 -242 -218 -325 -126 -162 -306 -325 -434 -393 -39 -21 -62 -25
-145 -27 -54 -1 -111 -2 -128 -3 l-30 -2 -1 305 0 305 69 60 c64 55 135 137
136 159 1 11 61 87 86 108 36 31 148 86 205 100 30 8 84 16 120 17 81 3 92 9
164 84 107 114 159 215 196 383 11 51 20 96 20 98 0 3 48 46 108 98 128 111
166 151 192 200 18 33 32 88 33 126 0 16 15 15 93 -4z m424 -128 c247 -85 384
-143 595 -248 154 -77 433 -245 472 -284 8 -8 18 -14 22 -14 4 0 16 -8 27 -17
10 -10 45 -38 78 -63 l58 -44 -49 -46 c-92 -84 -118 -106 -248 -211 -183 -148
-360 -271 -610 -426 -86 -53 -324 -176 -465 -241 -152 -69 -401 -164 -465
-177 -22 -5 -44 -9 -50 -10 -33 -7 -125 -25 -150 -30 -16 -3 -40 -7 -53 -9
-31 -7 -157 -24 -309 -45 l-63 -8 73 71 c143 141 301 349 422 559 61 105 197
376 245 487 18 41 40 93 50 115 36 79 149 393 197 543 26 83 53 152 58 152 6
0 80 -24 165 -54z m-3835 -177 l139 -181 90 -45 91 -45 24 -62 c34 -90 124
-300 165 -387 37 -79 37 -80 12 -188 -10 -45 -11 -63 0 -91 21 -59 16 -116
-16 -198 -48 -118 -43 -150 33 -229 32 -33 41 -50 40 -75 -2 -46 -20 -88 -37
-88 -43 0 -401 147 -596 244 -331 166 -585 327 -895 570 -49 39 -95 75 -101
81 -6 5 -36 31 -66 57 -142 123 -219 199 -212 209 10 17 200 148 314 216 211
128 554 287 830 386 37 13 53 -2 185 -174z m-1428 -609 c84 -79 215 -194 298
-261 44 -35 82 -66 85 -69 10 -11 227 -168 283 -205 31 -21 57 -40 57 -42 0
-2 -3 -2 -7 0 -5 3 -30 15 -58 27 -88 39 -397 195 -485 244 -139 79 -348 207
-359 220 -8 10 5 28 55 75 36 34 69 61 74 59 5 -2 31 -23 57 -48z m6762 -145
c-8 -8 -25 -20 -39 -27 -14 -7 -68 -39 -120 -70 -168 -99 -493 -267 -620 -319
-40 -17 -42 -17 -20 -1 282 197 465 343 669 530 l26 23 59 -61 c51 -52 57 -63
45 -75z m-3552 -730 c0 -171 -3 -245 -11 -246 -87 -5 -214 5 -240 18 -80 41
-296 211 -296 233 0 18 144 64 240 76 62 8 121 35 150 70 38 44 107 87 151 93
3 1 6 -109 6 -244z m-642 -168 l48 -44 -79 10 c-44 5 -80 10 -82 11 -3 4 52
65 59 66 3 0 27 -19 54 -43z"/>
<path d="M12013 12910 c-29 -18 -97 -135 -88 -150 3 -5 16 -5 29 0 17 6 32 3
55 -11 34 -20 39 -43 17 -68 -30 -33 -26 -67 14 -129 21 -33 47 -62 59 -65 12
-3 26 -18 32 -36 8 -22 20 -33 47 -42 20 -6 64 -23 97 -36 43 -18 72 -24 105
-21 81 8 221 91 319 189 l43 44 -6 59 c-9 84 -50 149 -144 228 -35 29 -65 30
-109 1 -20 -14 -53 -17 -162 -18 -146 -1 -183 6 -219 40 -31 32 -56 36 -89 15z"/>
<path d="M6529 14301 c-105 -26 -113 -35 -128 -132 -7 -46 -14 -95 -16 -109
-2 -14 -7 -46 -10 -72 -6 -42 -5 -48 11 -49 11 -1 35 -2 56 -4 40 -4 78 23 78
54 0 20 38 56 112 107 44 31 98 109 98 144 0 18 -22 41 -55 57 -39 20 -81 21
-146 4z"/>
<path d="M6155 14180 c-22 -11 -51 -36 -64 -55 -27 -40 -42 -105 -30 -128 16
-28 -14 -51 -65 -48 -65 3 -86 -11 -86 -59 0 -34 6 -44 45 -77 25 -20 70 -51
101 -69 49 -28 60 -30 93 -22 86 22 131 100 127 223 -1 44 3 100 11 125 18 63
16 86 -9 110 -28 25 -72 26 -123 0z"/>
<path d="M13420 11520 c-30 -11 -64 -20 -75 -20 -31 0 -65 -28 -65 -53 0 -28
102 -213 180 -327 59 -87 90 -149 90 -180 0 -9 10 -25 21 -36 12 -10 28 -34
36 -53 14 -32 13 -35 -22 -94 -43 -72 -63 -142 -59 -210 3 -59 6 -62 33 -47
13 6 28 7 36 2 12 -6 6 -15 -29 -39 -25 -18 -52 -43 -61 -57 -18 -27 -23 -103
-8 -117 25 -24 300 101 406 184 68 54 87 80 87 123 0 34 -10 50 -105 179 -92
124 -127 182 -145 240 -7 22 -24 59 -37 82 -24 42 -27 65 -19 159 4 45 1 56
-22 82 -15 17 -36 32 -47 34 -16 3 -20 12 -21 48 -3 76 -3 79 -26 100 -28 25
-76 25 -148 0z"/>
<path d="M13292 11030 c-39 -9 -34 -5 -60 -55 -11 -22 -31 -52 -44 -66 -14
-15 -28 -34 -32 -44 -10 -27 -9 -326 1 -336 15 -15 105 -13 144 4 38 17 114
88 135 128 14 28 12 153 -4 276 -13 97 -42 116 -140 93z"/>
<path d="M14590 16910 c-85 -76 -108 -105 -87 -113 6 -2 22 2 33 10 42 27 84
33 121 18 55 -23 292 -199 283 -210 -4 -5 -108 -140 -231 -300 -377 -490 -416
-537 -459 -555 -26 -11 -35 -9 -74 14 -27 16 -47 22 -51 16 -9 -15 -3 -21 87
-85 46 -33 128 -96 183 -141 126 -102 151 -118 160 -104 4 6 -16 32 -44 58
-36 34 -51 56 -51 74 0 38 82 155 381 543 143 187 265 344 269 349 5 4 53 -28
107 -72 157 -127 189 -173 164 -236 -23 -56 -24 -66 -9 -66 16 0 158 171 158
191 0 8 -21 25 -46 39 -25 13 -61 35 -79 49 -17 15 -45 36 -61 48 -449 342
-604 466 -634 511 -13 17 -26 32 -31 32 -5 0 -45 -32 -89 -70z"/>
<path d="M4170 16618 c-37 -44 -151 -147 -440 -398 -52 -46 -97 -86 -100 -90
-14 -20 -176 -142 -211 -160 l-40 -21 42 -77 c53 -97 79 -132 97 -132 10 0 13
7 8 28 -3 15 -9 38 -12 52 -9 43 5 69 74 138 69 68 153 146 183 170 15 11 54
-30 330 -346 350 -401 336 -384 373 -438 34 -50 33 -81 -4 -121 -30 -31 -38
-53 -21 -53 9 0 54 33 87 65 55 53 117 107 199 175 108 90 128 111 117 122 -5
5 -36 -9 -71 -34 l-62 -42 -33 18 c-19 10 -59 44 -88 75 -60 63 -191 209 -358
401 -36 41 -72 81 -80 90 -8 9 -28 32 -44 51 -16 19 -61 69 -100 113 l-70 78
30 27 c153 134 218 179 270 187 34 5 45 2 71 -20 34 -29 53 -33 53 -12 0 15
-147 196 -158 196 -4 -1 -23 -19 -42 -42z"/>
<path d="M15635 15863 c-164 -32 -275 -91 -386 -203 -133 -135 -199 -287 -199
-464 0 -173 78 -343 222 -485 105 -102 211 -163 348 -199 59 -15 210 -14 275
3 33 8 68 17 77 20 10 2 55 23 100 46 109 57 247 191 300 294 135 260 70 541
-182 785 -102 99 -229 173 -335 195 -37 8 -193 14 -220 8z m349 -156 c108 -41
215 -162 255 -288 18 -55 20 -156 5 -229 -56 -268 -386 -563 -627 -561 -159 1
-301 114 -363 290 -82 230 45 516 312 707 150 107 282 133 418 81z"/>
<path d="M2925 15432 c-25 -18 -40 15 305 -657 244 -475 263 -515 262 -562 0
-34 -8 -57 -31 -90 -37 -52 -37 -53 -11 -53 11 0 20 3 20 8 0 4 15 23 33 42
17 19 49 56 70 82 45 57 48 60 111 125 34 36 47 57 42 68 -5 15 -12 12 -45
-18 -66 -59 -84 -43 -200 176 -53 101 -60 121 -49 135 25 34 183 218 214 251
l32 33 74 -25 c182 -63 284 -100 295 -109 8 -6 10 -20 7 -34 -3 -13 -2 -24 4
-24 18 0 292 310 292 330 0 22 -19 17 -46 -12 -42 -44 -85 -60 -147 -53 -28 3
-313 93 -632 200 -319 107 -582 195 -585 195 -3 0 -9 -4 -15 -8z m450 -344
c105 -39 194 -75 199 -79 8 -7 -30 -56 -139 -177 -16 -19 -34 -40 -38 -48 -14
-25 -32 -15 -55 29 -21 42 -79 148 -155 286 -32 60 -37 73 -21 67 10 -4 105
-39 209 -78z"/>
<path d="M2344 14683 c-20 -38 -68 -118 -106 -179 -64 -105 -80 -144 -58 -144
5 0 20 17 34 38 31 50 51 65 85 65 36 0 67 -16 406 -208 154 -87 300 -170 325
-184 l45 -26 -120 -27 c-66 -16 -262 -63 -435 -105 -173 -42 -415 -99 -537
-128 -123 -28 -228 -56 -233 -61 -6 -6 -8 -17 -5 -25 6 -15 89 -69 106 -69 5
0 9 -4 9 -10 0 -5 5 -10 10 -10 6 0 34 -15 63 -34 94 -61 639 -396 645 -397
21 -2 187 -127 193 -145 18 -50 -68 -146 -177 -198 -40 -20 -169 -68 -286
-107 -283 -95 -268 -91 -275 -71 -50 148 -135 258 -241 309 -79 37 -185 39
-256 3 -100 -51 -162 -147 -245 -385 -27 -77 -63 -176 -81 -220 -60 -148 -61
-155 -42 -155 11 0 25 19 39 50 28 64 56 79 121 62 44 -12 241 -82 287 -102
18 -8 112 -43 325 -120 265 -97 388 -154 403 -187 7 -16 7 -35 -2 -64 -8 -25
-9 -45 -3 -51 14 -14 27 9 57 102 15 47 52 145 81 218 30 74 54 142 54 153 0
35 -20 20 -46 -36 -31 -65 -52 -79 -106 -71 -47 8 -366 120 -381 135 -8 8 28
122 51 158 4 7 93 35 197 63 377 101 433 135 499 312 14 37 46 103 71 148 25
45 45 85 45 88 0 3 10 19 23 36 35 46 107 170 107 184 0 7 -7 12 -15 12 -8 0
-15 -4 -15 -10 0 -17 -72 -90 -89 -90 -39 0 -96 25 -241 106 -85 47 -175 98
-200 111 -25 14 -63 36 -85 48 -62 36 -167 94 -202 112 -43 22 -41 29 5 38 28
5 268 59 442 100 8 2 80 20 160 40 80 20 152 38 160 40 8 2 44 11 80 20 36 9
72 18 80 20 8 2 44 11 80 20 36 9 72 18 80 20 64 13 173 51 177 63 9 21 -16
40 -247 182 -118 72 -231 142 -250 155 -64 42 -361 225 -365 225 -10 0 -103
66 -132 94 -37 33 -42 64 -18 110 19 36 19 46 0 46 -7 0 -31 -30 -51 -67z
m-584 -1918 c140 -50 232 -153 215 -244 -9 -49 -73 -181 -88 -181 -27 0 -510
185 -515 198 -12 33 41 145 91 191 64 58 191 74 297 36z"/>
<path d="M17010 14573 c-25 -8 -58 -20 -75 -28 -75 -34 -964 -384 -998 -393
-49 -14 -77 -3 -110 40 -18 22 -29 30 -37 22 -7 -7 10 -43 54 -114 34 -58 80
-135 100 -172 20 -38 44 -68 51 -68 20 0 19 13 -5 60 -40 79 -25 99 124 160
107 45 411 173 461 195 17 7 47 20 68 29 l37 15 -38 -57 c-255 -378 -464 -711
-460 -732 3 -11 16 -15 53 -14 52 1 207 11 285 19 62 6 160 14 255 20 44 3
100 8 125 10 126 12 234 16 225 8 -5 -5 -50 -41 -100 -80 -49 -38 -166 -130
-260 -204 -244 -194 -245 -194 -279 -194 -25 0 -30 -4 -28 -20 4 -23 166 -321
190 -348 27 -30 33 -3 11 48 -30 68 -33 100 -12 136 10 17 95 92 188 167 94
76 172 139 175 142 3 3 61 51 130 105 69 55 127 102 130 105 3 3 64 53 135
110 174 140 175 141 175 162 0 18 -7 21 -45 20 -21 0 -175 -11 -235 -17 -19
-2 -71 -6 -115 -9 -44 -4 -100 -9 -125 -11 -25 -2 -81 -7 -125 -10 -96 -7
-174 -14 -235 -20 -25 -2 -85 -7 -133 -10 l-88 -6 24 38 c13 21 69 106 124
188 55 83 148 224 208 315 59 91 135 205 167 254 33 49 64 99 68 112 14 35 -7
45 -60 27z"/>
<path d="M17368 12914 c-247 -36 -461 -210 -539 -439 -21 -61 -24 -88 -23
-200 1 -114 4 -141 29 -215 74 -226 198 -375 381 -456 78 -35 136 -46 244 -50
260 -9 505 115 614 311 33 59 60 132 71 190 7 40 7 174 0 205 -3 14 -8 41 -11
60 -25 152 -121 337 -223 433 -149 139 -328 192 -543 161z m351 -194 c147 -28
265 -146 300 -301 64 -277 -128 -533 -476 -634 -178 -52 -307 -51 -419 5 -100
49 -164 137 -190 261 -49 237 76 455 333 583 155 77 329 110 452 86z"/>
<path d="M1039 11829 c0 -2 -2 -26 -4 -54 -2 -27 -13 -97 -25 -155 -12 -58
-24 -114 -26 -125 -7 -38 -53 -240 -77 -342 -14 -58 -21 -107 -16 -115 11 -18
23 -2 38 50 7 24 21 52 33 64 24 24 77 22 233 -12 55 -12 114 -24 130 -27 17
-3 80 -16 140 -30 61 -13 121 -26 135 -29 125 -23 412 -91 453 -109 50 -21 69
-52 58 -92 -7 -23 -5 -37 4 -50 12 -16 14 -14 23 22 6 22 18 78 27 125 9 47
36 166 60 265 58 240 76 331 69 348 -3 8 -17 20 -32 27 -51 23 -165 60 -189
60 -38 0 -25 -23 25 -47 70 -33 86 -67 78 -161 -8 -100 -40 -202 -71 -232 -18
-17 -36 -24 -64 -23 -47 1 -432 83 -445 94 -6 6 -2 39 9 86 10 43 20 83 21 89
19 104 60 150 123 138 36 -7 69 2 55 16 -10 10 -236 80 -259 80 -19 0 -19 -9
0 -34 10 -13 13 -35 10 -70 -5 -59 -50 -275 -59 -284 -4 -3 -39 2 -79 11 -39
9 -137 30 -217 47 -79 17 -146 32 -147 33 -1 2 12 59 29 127 46 188 61 210
144 210 53 0 66 8 42 27 -7 5 -54 21 -104 36 -50 14 -98 29 -107 33 -9 3 -17
5 -18 3z"/>
<path d="M18339 11428 c0 -7 -1 -39 -2 -72 -3 -95 9 -90 -457 -161 -185 -29
-214 -33 -250 -40 -14 -3 -41 -7 -60 -9 -40 -5 -103 -15 -140 -22 -14 -3 -73
-7 -132 -11 -124 -7 -133 -3 -149 64 -6 24 -15 46 -20 49 -20 12 -20 -30 -1
-133 22 -115 28 -159 38 -263 21 -235 94 -375 236 -451 58 -31 70 -33 153 -33
70 0 100 5 137 21 96 44 179 148 214 269 l18 61 51 -38 c78 -59 139 -82 215
-82 209 1 295 170 236 463 -9 41 -18 93 -21 115 -4 22 -8 50 -10 63 -2 13 -7
51 -10 85 -9 91 -19 130 -33 135 -6 2 -12 -2 -13 -10z m18 -416 c11 -54 6 -92
-18 -137 -57 -108 -232 -166 -344 -114 -55 26 -82 64 -91 129 -3 25 -7 52 -10
60 -9 35 18 45 164 64 73 10 125 18 197 30 39 7 76 11 82 8 7 -2 16 -20 20
-40z m-531 -132 c3 -72 0 -88 -22 -132 -59 -117 -187 -198 -324 -205 -65 -4
-81 -2 -120 19 -62 34 -102 110 -103 199 -1 110 26 138 153 153 29 4 63 9 74
11 12 2 39 7 61 10 22 3 65 10 95 15 30 5 77 12 105 15 27 3 52 8 54 11 13 13
24 -23 27 -96z"/>
<path d="M829 10758 c-1 -2 -2 -52 -4 -113 -2 -103 -10 -247 -20 -375 -3 -30
-7 -93 -10 -140 -11 -178 -16 -246 -20 -282 -13 -100 -17 -124 -26 -140 -22
-42 -7 -51 161 -92 91 -22 105 -5 32 41 -57 35 -69 66 -66 168 1 39 3 108 4
155 2 47 5 91 8 98 3 10 20 12 61 7 31 -3 99 -7 151 -10 52 -3 115 -7 140 -10
25 -2 92 -7 150 -10 58 -3 130 -8 160 -10 30 -3 93 -7 140 -10 294 -19 330
-32 330 -117 0 -36 4 -48 15 -48 8 0 15 8 16 18 0 9 2 24 3 32 2 8 6 78 10
155 4 77 9 154 11 170 11 91 13 143 4 156 -13 21 -26 -2 -33 -65 -12 -95 -20
-98 -243 -91 -98 3 -188 7 -200 9 -11 3 -70 7 -130 11 -59 4 -130 8 -158 10
-27 2 -106 7 -175 10 -69 4 -132 9 -140 11 -8 1 -35 3 -58 3 l-44 1 6 58 c3
31 8 84 11 117 10 98 16 128 36 167 21 42 37 52 92 62 35 6 47 19 29 30 -4 2
-36 7 -72 10 -36 4 -89 9 -117 12 -29 2 -54 3 -54 2z"/>
<path d="M18502 10139 c-5 -13 -7 -30 -5 -37 7 -18 -14 -66 -36 -79 -23 -14
-99 -22 -286 -28 -819 -27 -833 -27 -867 15 -10 12 -18 37 -18 56 0 35 -17 55
-30 34 -4 -7 -6 -29 -4 -49 2 -20 6 -133 10 -251 5 -195 12 -246 30 -227 3 3
8 31 9 62 7 117 8 117 310 130 234 9 447 16 645 20 229 5 238 2 247 -79 3 -25
10 -49 15 -53 16 -9 26 17 22 56 -2 20 -6 126 -9 236 -5 193 -14 246 -33 194z"/>
<path d="M17276 9371 c-3 -4 -8 -48 -10 -97 -7 -123 -16 -239 -21 -266 -3 -12
-7 -58 -11 -102 -3 -45 -8 -83 -9 -86 -5 -9 -19 -192 -17 -229 1 -43 5 -46 77
-65 128 -32 185 -37 185 -16 0 6 -8 13 -17 17 -117 39 -145 83 -138 213 9 161
25 216 70 246 23 15 44 16 178 10 84 -3 163 -8 177 -10 14 -3 66 -7 115 -11
50 -4 108 -8 130 -10 22 -2 81 -6 130 -9 50 -4 106 -9 125 -11 19 -2 64 -7 98
-10 114 -11 133 -27 135 -111 2 -65 23 -86 31 -32 3 18 8 80 11 138 3 58 11
160 18 228 7 67 10 126 7 132 -11 18 -27 -6 -34 -52 -5 -34 -15 -53 -34 -69
-26 -20 -34 -21 -152 -14 -134 7 -172 9 -277 19 -110 10 -174 16 -248 21 -38
3 -92 7 -120 10 -27 3 -81 7 -118 10 -138 11 -219 29 -239 53 -7 8 -14 29 -15
46 0 17 -2 39 -2 49 -1 18 -16 23 -25 8z"/>
<path d="M759 9319 c-3 -24 0 -61 11 -138 6 -42 13 -101 15 -131 7 -89 16
-164 21 -172 13 -20 24 8 24 60 0 88 24 110 140 127 25 4 57 9 73 11 15 2 49
7 75 9 26 3 56 7 67 9 11 2 49 7 85 11 36 3 72 8 80 10 13 4 63 10 300 40 25
4 51 8 58 10 6 3 12 1 12 -3 0 -7 -55 -77 -108 -137 -15 -16 -67 -79 -117
-140 -49 -60 -92 -112 -95 -115 -3 -3 -59 -72 -125 -155 -66 -82 -176 -217
-245 -300 -173 -207 -172 -206 -160 -220 10 -13 19 -13 155 0 33 3 87 8 120
10 33 3 78 7 100 10 22 2 67 7 100 10 33 3 80 7 105 10 25 3 72 7 105 10 33 4
76 8 95 10 19 2 69 7 110 10 41 4 87 8 101 11 14 2 71 6 126 9 89 4 102 2 121
-15 17 -16 34 -63 37 -102 0 -3 4 -10 8 -14 11 -11 28 17 22 36 -3 8 -7 38
-10 65 -3 28 -7 59 -9 70 -2 11 -7 52 -10 90 -15 168 -18 191 -27 199 -15 16
-23 -2 -20 -48 3 -58 -12 -92 -48 -110 -26 -14 -123 -34 -241 -50 -19 -3 -53
-7 -75 -10 -303 -43 -404 -57 -448 -62 -29 -4 -56 -9 -62 -12 -12 -7 13 23
145 179 245 289 690 854 690 878 l0 24 -97 -8 c-54 -4 -114 -9 -133 -11 -19
-1 -62 -5 -95 -8 -33 -3 -82 -8 -110 -11 -27 -3 -72 -7 -100 -10 -55 -5 -133
-12 -222 -20 -32 -3 -80 -8 -108 -10 -27 -3 -70 -7 -95 -10 -156 -18 -227 -20
-263 -9 -20 6 -47 54 -47 82 0 24 -29 52 -31 31z"/>
<path d="M17175 8378 c-2 -13 -16 -79 -30 -148 -34 -163 -31 -153 -59 -262
-26 -98 -54 -221 -62 -273 -3 -16 -7 -35 -9 -42 -2 -7 8 -21 22 -33 27 -21
203 -81 215 -74 16 10 7 22 -42 52 -80 50 -95 112 -59 247 6 22 12 47 14 56 7
37 35 88 53 98 29 15 90 14 169 -5 37 -9 75 -17 83 -19 8 -2 65 -13 125 -26
61 -12 115 -27 122 -33 9 -8 4 -42 -21 -140 -27 -108 -37 -133 -61 -154 -24
-20 -36 -23 -71 -18 -67 9 -75 -27 -9 -38 17 -3 71 -19 120 -35 50 -16 94 -25
98 -21 5 4 2 21 -6 36 -8 16 -12 45 -10 64 7 58 53 275 61 282 4 3 48 -2 97
-13 50 -11 144 -31 210 -44 65 -14 123 -29 128 -34 4 -4 3 -28 -3 -52 -6 -24
-13 -55 -16 -69 -13 -70 -47 -162 -68 -186 -19 -23 -30 -27 -74 -27 -29 1 -54
-3 -57 -7 -8 -14 18 -27 110 -55 143 -43 132 -44 134 13 0 27 10 92 21 143 12
52 28 128 36 169 9 41 33 151 55 244 38 158 43 206 19 191 -5 -3 -14 -24 -21
-47 -6 -23 -17 -51 -25 -64 -26 -39 -59 -38 -284 10 -170 36 -396 85 -445 96
-22 5 -94 21 -160 36 -139 30 -232 60 -258 82 -15 13 -17 26 -13 69 4 42 2 53
-9 53 -8 0 -17 -10 -20 -22z"/>
<path d="M2205 7909 c2 -11 7 -30 11 -41 11 -36 6 -89 -10 -107 -19 -21 -148
-62 -461 -145 -132 -35 -310 -82 -395 -104 -241 -64 -257 -64 -291 14 -19 42
-57 65 -45 27 21 -69 77 -269 81 -291 19 -100 41 -167 55 -167 9 0 14 8 12 20
-13 86 -7 106 42 129 56 26 934 261 1016 271 59 8 85 -7 105 -60 26 -65 50
-50 32 20 -3 11 -15 49 -26 85 -16 53 -56 202 -65 245 -23 105 -30 125 -47
125 -13 0 -17 -6 -14 -21z"/>
<path d="M16524 6252 c-10 -6 -114 -178 -114 -189 0 -2 -24 -40 -54 -84 -30
-45 -52 -87 -49 -95 7 -18 25 -8 48 29 43 68 82 43 219 -137 l87 -116 -82
-137 c-99 -166 -126 -204 -142 -198 -6 2 -28 6 -47 9 -153 23 -325 57 -330 67
-4 6 -5 20 -3 30 7 24 -9 25 -29 2 -29 -34 -208 -332 -208 -348 0 -8 -22 -26
-49 -40 -90 -45 -212 -183 -261 -295 -20 -45 -24 -72 -24 -150 0 -85 3 -101
29 -154 49 -98 166 -183 275 -201 49 -8 151 -9 190 0 14 2 39 7 55 10 17 4 76
17 131 31 183 44 268 36 330 -31 62 -68 54 -164 -21 -252 -67 -78 -174 -101
-262 -56 -48 24 -73 19 -51 -9 7 -9 47 -44 88 -79 41 -35 77 -67 78 -71 7 -16
38 -7 67 17 107 91 168 166 210 258 88 191 12 373 -185 448 -81 31 -189 29
-365 -5 -11 -2 -38 -9 -60 -15 -145 -39 -245 -31 -325 24 -136 94 -87 315 85
385 69 28 127 22 209 -20 66 -34 76 -36 76 -16 0 13 -117 125 -180 171 l-30
22 31 42 c44 61 83 75 199 68 52 -3 111 -9 130 -12 46 -8 333 -54 385 -61 54
-9 71 -11 140 -23 33 -6 78 -13 100 -16 22 -4 51 -8 65 -11 40 -7 142 -23 185
-29 22 -4 51 -8 65 -11 133 -24 175 -14 143 36 -13 22 -314 428 -336 455 -58
70 -394 530 -409 559 -26 50 -25 103 2 151 20 36 17 62 -6 47z m220 -699 c54
-65 256 -324 256 -329 0 -6 -26 -2 -230 38 -85 17 -166 32 -179 35 -14 2 -28
6 -32 9 -6 3 150 273 159 274 2 0 14 -12 26 -27z"/>
<path d="M2743 6151 c-76 -47 -41 -181 50 -186 101 -6 152 95 86 170 -25 28
-38 35 -68 35 -20 0 -50 -9 -68 -19z"/>
<path d="M2935 5795 c-99 -37 -185 -84 -185 -101 0 -13 6 -14 33 -7 17 4 66 8
108 8 70 0 80 -3 125 -33 90 -62 178 -193 210 -309 14 -56 19 -172 9 -223 -14
-73 -19 -89 -43 -140 -65 -140 -185 -253 -352 -333 -90 -42 -153 -56 -243 -54
-68 3 -94 8 -148 34 -152 71 -292 285 -303 463 -5 67 20 125 75 179 47 46 52
61 22 61 -8 0 -56 -27 -108 -60 -52 -33 -110 -68 -130 -77 -19 -9 -35 -20 -35
-24 0 -18 102 -235 144 -306 121 -203 235 -320 380 -388 212 -99 452 -72 651
75 118 87 209 219 249 357 21 76 19 234 -6 330 -39 156 -158 361 -283 490 -79
81 -95 87 -170 58z"/>
<path d="M3838 4679 c-9 -5 -34 -26 -56 -47 -43 -41 -274 -258 -337 -317 -22
-21 -100 -95 -173 -164 -235 -222 -246 -232 -280 -258 -42 -33 -86 -33 -121 1
-15 14 -32 26 -39 26 -28 0 -7 -31 71 -107 45 -44 112 -113 149 -152 37 -39
71 -71 77 -71 19 0 11 24 -19 59 -40 46 -47 76 -25 116 9 18 147 165 305 326
l289 294 -4 -105 c-5 -103 -8 -238 -21 -780 -11 -476 -11 -484 7 -488 18 -3
19 -3 232 200 95 90 203 193 242 230 38 36 88 83 110 103 22 21 81 76 130 124
126 120 181 164 209 164 14 0 42 -15 63 -32 36 -30 68 -41 61 -22 -6 19 -313
331 -325 331 -21 0 -15 -14 22 -61 20 -25 35 -55 35 -71 0 -36 -49 -99 -185
-238 -62 -63 -179 -182 -259 -265 l-145 -150 4 60 c11 140 15 298 21 776 6
534 6 542 -38 518z"/>
<path d="M15136 4315 c-96 -46 -223 -165 -274 -257 -60 -108 -65 -238 -11
-337 61 -116 170 -191 301 -209 68 -9 193 -8 250 3 78 13 235 17 275 6 83 -23
133 -86 133 -169 0 -39 -7 -58 -35 -97 -83 -117 -213 -148 -313 -75 -32 23
-43 26 -51 16 -8 -9 2 -25 35 -62 25 -27 65 -70 87 -97 l42 -47 40 21 c92 50
197 146 248 226 137 217 25 463 -233 512 -54 10 -270 8 -320 -4 -74 -16 -202
-4 -260 25 -134 69 -158 214 -53 330 101 112 243 117 367 13 22 -18 31 -21 37
-12 10 17 5 25 -61 100 -85 97 -128 139 -142 138 -7 0 -35 -11 -62 -24z"/>
<path d="M4820 3706 c0 -7 21 -32 46 -56 25 -23 48 -53 50 -66 7 -39 -32 -94
-502 -714 -173 -227 -178 -231 -250 -195 -44 22 -64 24 -64 6 0 -4 37 -34 83
-66 45 -32 123 -91 172 -130 50 -40 102 -80 118 -90 26 -16 27 -16 27 0 0 10
-16 32 -35 51 -63 59 -70 46 238 454 322 426 398 518 429 521 25 2 43 -3 69
-22 15 -10 32 -19 38 -19 32 0 -1 35 -111 117 -68 50 -161 121 -208 157 -88
69 -100 75 -100 52z"/>
<path d="M14243 3500 c-132 -35 -264 -110 -358 -204 -141 -141 -194 -260 -209
-466 -6 -89 46 -280 95 -352 11 -14 19 -29 19 -33 0 -17 98 -131 151 -175 150
-125 334 -163 529 -109 86 23 221 92 298 151 105 81 204 208 241 308 42 114
49 277 17 395 -60 217 -232 399 -447 475 -89 31 -238 36 -336 10z m147 -163
c150 -48 277 -150 378 -300 169 -251 170 -457 6 -613 -90 -85 -200 -125 -327
-120 -222 10 -435 179 -563 449 -19 41 -37 87 -40 102 -3 16 -7 32 -10 37 -12
18 -4 156 11 198 42 121 153 216 298 254 63 17 184 14 247 -7z"/>
<path d="M5819 2654 c-79 -163 -198 -404 -264 -536 -137 -276 -144 -284 -220
-256 -42 16 -64 11 -51 -11 4 -5 40 -23 81 -40 41 -18 125 -56 187 -86 61 -30
117 -55 124 -55 23 0 16 28 -8 36 -13 4 -38 18 -55 32 -27 20 -33 31 -33 63 0
35 56 179 151 386 16 34 39 88 53 120 13 32 40 92 58 133 19 41 42 94 53 118
10 23 20 41 21 39 2 -2 42 -113 88 -248 46 -134 103 -296 126 -359 50 -138 92
-257 171 -490 32 -96 64 -179 69 -184 7 -7 15 -5 25 4 14 14 101 186 190 375
58 123 259 536 297 610 53 105 77 122 140 100 54 -18 68 -19 68 -1 0 8 -31 27
-72 44 -40 17 -129 58 -198 91 -69 34 -130 61 -137 61 -29 0 -20 -21 16 -39
58 -30 84 -67 76 -111 -7 -37 -59 -172 -105 -275 -15 -33 -67 -152 -115 -265
-49 -113 -91 -209 -95 -213 -6 -6 -114 295 -135 373 -2 8 -17 51 -33 95 -16
44 -78 213 -136 375 -59 162 -117 320 -130 350 -42 100 -44 98 -207 -236z"/>
<path d="M12830 2690 c-179 -38 -398 -139 -502 -233 -40 -35 -39 -61 13 -239
12 -42 25 -68 34 -68 18 0 23 19 15 57 -17 72 19 164 86 222 42 38 172 103
234 119 83 22 137 21 265 -3 17 -3 64 -22 105 -42 138 -67 254 -208 316 -384
33 -94 34 -99 39 -191 6 -129 -38 -243 -126 -322 -51 -46 -164 -107 -244 -131
-71 -22 -182 -29 -231 -16 -72 19 -106 49 -160 137 -10 15 -15 16 -25 7 -10
-10 -2 -38 39 -143 29 -71 52 -133 52 -138 0 -27 25 -29 118 -5 283 71 467
163 602 302 120 123 174 256 173 426 0 90 -17 189 -36 213 -5 6 -7 12 -3 12
11 0 -61 134 -99 186 -151 203 -398 290 -665 234z"/>
<path d="M11960 2357 c-47 -16 -155 -49 -240 -73 -85 -24 -159 -49 -165 -57
-9 -12 -122 -40 -210 -52 -88 -12 -156 -25 -167 -31 -21 -13 8 -25 46 -20 58
9 80 -9 79 -65 0 -54 -52 -304 -67 -324 -6 -7 -29 -16 -51 -20 -23 -3 -52 -8
-65 -10 -14 -3 -52 -10 -85 -15 -84 -14 -116 -20 -146 -26 -16 -3 -32 1 -41
10 -21 20 -198 321 -198 335 0 6 7 14 15 17 8 4 15 12 15 20 0 14 -25 14 -109
-1 -14 -2 -44 -7 -66 -9 -22 -3 -50 -8 -61 -10 -12 -2 -39 -7 -60 -10 -97 -15
-145 -28 -141 -39 2 -7 21 -11 48 -9 107 6 145 -33 341 -348 299 -483 381
-616 392 -635 75 -132 120 -178 141 -145 5 8 75 307 89 380 2 14 14 68 26 120
12 52 23 104 26 115 2 11 20 92 39 180 20 88 38 169 40 180 3 11 7 31 10 45 3
14 7 34 9 45 18 93 50 194 70 220 24 31 53 47 109 59 15 4 27 13 27 20 0 31
91 35 119 4 24 -24 116 -297 171 -503 4 -16 20 -70 35 -120 89 -296 123 -423
119 -450 -4 -33 -34 -61 -76 -70 -30 -7 -39 -35 -12 -35 8 0 63 16 122 35 59
20 152 47 206 61 107 27 136 39 136 55 0 6 -21 8 -59 3 -56 -6 -60 -5 -82 20
-13 15 -29 44 -35 64 -22 69 -235 777 -239 792 -2 8 -13 53 -25 99 -11 46 -20
100 -18 120 3 32 8 38 51 59 26 12 47 26 47 31 0 19 -28 16 -110 -12z m-740
-738 c0 -5 -4 -29 -10 -52 -5 -23 -24 -116 -41 -207 -17 -91 -34 -168 -38
-172 -5 -6 -116 179 -186 311 -11 21 -26 45 -33 54 -11 13 -10 17 5 25 10 5
36 12 58 15 56 9 112 18 165 27 66 11 80 11 80 -1z"/>
<path d="M7588 2254 c-98 -15 -139 -28 -218 -71 -212 -114 -346 -342 -356
-603 -8 -237 101 -424 320 -545 57 -30 205 -82 268 -93 54 -9 251 -7 298 3
145 30 303 140 385 269 84 132 115 244 110 401 -2 61 -5 117 -7 125 -2 8 -8
31 -12 50 -31 139 -166 302 -311 377 -97 49 -175 74 -280 88 -89 11 -119 11
-197 -1z m207 -85 c178 -49 296 -172 351 -364 48 -171 -2 -453 -110 -615 -127
-191 -359 -233 -562 -102 -205 133 -270 403 -173 718 56 184 160 312 289 357
53 19 148 21 205 6z"/>
<path d="M8660 2047 c0 -10 14 -18 43 -22 114 -19 128 -43 116 -195 -9 -117
-19 -235 -23 -275 -2 -16 -7 -68 -10 -115 -4 -47 -9 -92 -11 -100 -2 -8 -6
-53 -10 -100 -3 -47 -8 -101 -10 -120 -2 -19 -7 -62 -10 -95 -18 -182 -29
-203 -110 -207 -26 -2 -50 -8 -52 -15 -5 -15 30 -21 151 -28 55 -3 111 -7 125
-9 14 -3 47 -7 74 -10 26 -3 67 -9 91 -12 28 -3 47 -1 51 6 9 15 3 20 -29 26
-91 16 -101 35 -93 178 4 61 9 122 11 136 3 14 7 62 11 108 3 46 7 98 10 115
2 18 7 64 10 102 6 75 11 123 20 195 2 25 7 75 10 111 3 37 8 77 10 90 3 13 7
41 10 64 13 89 33 110 107 106 20 -1 39 3 42 8 13 20 -25 28 -163 36 -86 4
-137 9 -211 20 -114 16 -160 17 -160 2z"/>
<path d="M9956 2003 c-2 -2 -77 -4 -167 -4 -178 -1 -199 -4 -199 -23 0 -10 16
-13 53 -13 67 0 94 -9 108 -34 24 -46 28 -104 45 -669 3 -107 7 -248 9 -313
l3 -117 -25 -6 c-13 -4 -86 -4 -161 -2 -176 6 -211 22 -226 103 -6 33 -11 39
-25 30 -7 -4 -11 -54 -11 -131 l0 -126 43 7 c23 4 51 9 61 11 10 2 105 6 210
9 105 4 238 8 296 10 216 9 397 7 439 -5 24 -6 45 -10 47 -7 8 8 36 172 37
217 0 57 -19 53 -45 -9 -31 -76 -54 -83 -315 -96 l-113 -6 -1 73 c0 40 -2 116
-4 168 -5 143 -17 542 -19 650 -2 125 8 218 26 236 12 12 41 19 101 23 4 1 7
8 7 17 0 13 -13 15 -85 13 -47 -2 -87 -4 -89 -6z"/>
</g>
</svg>
